<svg xmlns="http://www.w3.org/2000/svg" width="822.537" height="837.576" viewBox="0 0 822.537 837.576">
  <g id="Group_1179" data-name="Group 1179" transform="translate(0.333 -2294.424)">
    <path id="Path_2476" data-name="Path 2476" d="M753.689,902.874l-.009-.013a236.284,236.284,0,0,0-216.15-116.98c-.632.036-1.272.076-1.9.111-7.152.423-14.3,1.13-21.434,2.211l-.027-.147c-1.552.369-3.109.7-4.67.974a82.112,82.112,0,0,1-85.177-39.493l0-.013a82.112,82.112,0,0,1,7.57-93.579l-.013-.018c60.5-74.173,72.158-181.15,21.172-268.577S303.2,257.4,208.857,273.519l-.009-.018a82.12,82.12,0,0,1-85.177-39.493l-.009-.013a82.073,82.073,0,0,1,54.1-121.681l-.013-.022.961-.173c1.819-.32,3.647-.6,5.475-.9C343.117,85.36,509.006,157.46,594.846,304.65c59.628,102.244,68.689,220.264,34.9,324.91a402.7,402.7,0,0,1,89.9,29.783A398.207,398.207,0,0,1,895.492,820.175a82.078,82.078,0,1,1-141.8,82.7Z" transform="translate(-84.481 2188.381)" fill="#ff6c00" opacity="0.179"/>
    <circle id="Ellipse_8" data-name="Ellipse 8" cx="152.5" cy="152.5" r="152.5" transform="translate(28 2538)" fill="#f6b900" opacity="0.998"/>
    <ellipse id="Ellipse_10" data-name="Ellipse 10" cx="122.5" cy="14" rx="122.5" ry="14" transform="translate(58 2852)" fill="#ff6c00" opacity="0.998"/>
    <g id="Group_1077" data-name="Group 1077" transform="translate(126.451 2617.344)">
      <g id="Group_1076" data-name="Group 1076" transform="translate(-70.451 12.294)">
        <path id="Path_2477" data-name="Path 2477" d="M37.645,29.564c-1.058,5.7-4.912,8.825-10.674,8.825-7.229,0-11.422-5.211-11.422-13.133,0-7.889,4.432-12.962,11.627-12.962,5.558,0,9.411,3.128,10.4,8.825H33.416a6.149,6.149,0,0,0-6.375-5.211c-3.923,0-7.026,3.268-7.026,9.348,0,6.114,3.036,9.519,6.99,9.519a6.131,6.131,0,0,0,6.479-5.211Z" transform="translate(-15.549 -12.294)" fill="#fff"/>
        <path id="Path_2478" data-name="Path 2478" d="M27.552,40.154V36.992h1.534c1.775,0,2.524-.137,3.342-2.569l.2-.453-6.65-18.59h4.434l4.159,13.413L38.737,15.38H42.9L36.451,34.04c-1.739,4.83-2.932,6.114-7.058,6.114Z" transform="translate(-2.487 -8.43)" fill="#fff"/>
        <path id="Path_2479" data-name="Path 2479" d="M38.263,12.495v9a6.047,6.047,0,0,1,5.457-2.919c4.364,0,7.979,3.822,7.979,9.765,0,6.01-3.614,9.8-7.979,9.8a6.043,6.043,0,0,1-5.457-2.919v2.466H34.205V12.495Zm4.569,22.272c2.727,0,4.637-2.4,4.637-6.427,0-3.927-1.91-6.393-4.637-6.393-2.693,0-4.74,2.085-4.74,6.393S40.139,34.767,42.832,34.767Z" transform="translate(7.808 -12.042)" fill="#fff"/>
        <path id="Path_2480" data-name="Path 2480" d="M47.023,26.14c.272,3.475,2.66,5.18,4.979,5.18,2.148,0,3.786-.835,4.5-2.608h3.988a8.318,8.318,0,0,1-8.319,6.047c-5.9,0-9.276-4.551-9.276-9.938,0-5.628,3.819-9.625,9-9.625,5.625,0,9.172,4.691,8.8,10.945Zm0-3.022h9.548A4.652,4.652,0,0,0,51.9,18.427,4.857,4.857,0,0,0,47.023,23.117Z" transform="translate(18.69 -8.662)" fill="#fff"/>
        <path id="Path_2481" data-name="Path 2481" d="M62.009,19.6c-.682-.068-1.331-.1-1.943-.1-2.558,0-4.024,1.043-4.024,4.794v9.8H51.983V15.4h3.99v3.337a5.493,5.493,0,0,1,4.977-3.371,10.4,10.4,0,0,1,1.058.07Z" transform="translate(30.065 -8.449)" fill="#fff"/>
        <path id="Path_2482" data-name="Path 2482" d="M57.965,12.495H75.458v3.684H62.3v6.74H74.742v3.648H62.3v7.4H75.458v3.718H57.965Z" transform="translate(37.554 -12.042)" fill="#fff"/>
        <path id="Path_2483" data-name="Path 2483" d="M68.657,13.189h4.058v4.934H76.4v2.988H72.715V31.293c0,1.912.444,2.362,2.182,2.362h1.468v3.162h-3c-3.921,0-4.707-1.076-4.707-4.9V21.111H65.93V18.123h2.727Z" transform="translate(47.526 -11.173)" fill="#fff"/>
        <path id="Path_2484" data-name="Path 2484" d="M75.909,21.6a5.909,5.909,0,0,1,5.558-3.024c4.434,0,6.24,2.919,6.24,7.366V37.685H83.649V26.95c0-2.5-.34-5-3.477-5s-4.263,2.432-4.263,5.8v9.938H71.851V12.495h4.058Z" transform="translate(54.939 -12.042)" fill="#fff"/>
        <path id="Path_2485" data-name="Path 2485" d="M84.45,12.495v4.171H80.392V12.495Zm0,6.5V37.685H80.392V18.992Z" transform="translate(65.632 -12.042)" fill="#fff"/>
        <path id="Path_2486" data-name="Path 2486" d="M100.693,22H96.736a4.156,4.156,0,0,0-4.263-3.369c-2.558,0-4.808,1.91-4.808,6.324,0,4.448,2.32,6.36,4.707,6.36a4.222,4.222,0,0,0,4.5-3.407h3.957A8.439,8.439,0,0,1,92.3,34.758c-5.321,0-8.832-4.2-8.832-9.765s3.511-9.8,9-9.8A8.166,8.166,0,0,1,100.693,22Z" transform="translate(69.488 -8.662)" fill="#fff"/>
        <path id="Path_2487" data-name="Path 2487" d="M103.344,20.721c-.444-1.7-1.977-2.365-4.022-2.365-1.775,0-3.412.8-3.412,2.052s.854,1.91,2.457,2.223l2.592.522c3.716.73,6.546,1.91,6.546,5.558,0,3.891-3.614,6.047-7.776,6.047-4.5,0-7.5-2.642-7.945-6.15h3.957c.374,1.946,1.7,3.022,4.126,3.022,2.148,0,3.682-.9,3.682-2.432s-1.365-2.189-3.171-2.572l-2.761-.554c-3.105-.662-5.526-2.016-5.526-5.457,0-3.3,3.513-5.42,7.47-5.42,3.581,0,6.853,1.772,7.6,5.526Z" transform="translate(79.896 -8.662)" fill="#fff"/>
        <path id="Path_2488" data-name="Path 2488" d="M102.615,35.533h13.1v2.153H100.332V12.495h2.283Z" transform="translate(90.596 -12.042)" fill="#fff"/>
        <path id="Path_2489" data-name="Path 2489" d="M120.967,31.456c-1.191,1.982-3.477,3.3-6.887,3.3-3.446,0-6.071-2.016-6.071-5.107,0-4.274,4.094-5.767,12.924-6.706v-.66c0-4.274-2.488-5.177-5.114-5.177-3.137,0-4.979,1.736-5.148,4.2h-2.218c.511-3.718,3.308-6.116,7.5-6.116,4.263,0,7.094,1.808,7.094,7.366,0,2.606-.034,4.274-.034,5.767,0,2.121.1,3.927.2,5.977H121.07Zm-6.409,1.389c3.409,0,6.479-1.806,6.479-7.087v-.9c-7.468.833-10.674,1.876-10.674,4.758C110.362,31.6,112.1,32.846,114.558,32.846Z" transform="translate(100.208 -8.662)" fill="#fff"/>
        <path id="Path_2490" data-name="Path 2490" d="M124.674,38.138a6.953,6.953,0,0,1-6.206-3.509v3.056h-2.115V12.495h2.115v9.728a6.911,6.911,0,0,1,6.206-3.542c4.2,0,7.672,3.509,7.672,9.728S128.869,38.138,124.674,38.138Zm-.444-1.946c3.409,0,5.83-2.815,5.83-7.783s-2.421-7.785-5.83-7.785c-2.761,0-5.9,2.225-5.9,7.785S121.469,36.192,124.23,36.192Z" transform="translate(110.654 -12.042)" fill="#fff"/>
        <path id="Path_2491" data-name="Path 2491" d="M124.061,25.5V22.231h2.966V25.5Z" transform="translate(120.304 0.147)" fill="#fff"/>
      </g>
    </g>
    <text id="Service" transform="translate(181 2734)" fill="#848484" font-size="72" font-family="Nunito-ExtraBold, Nunito" font-weight="800"><tspan x="-123.948" y="0">Service</tspan></text>
    <path id="Path_2517" data-name="Path 2517" d="M1132.21,973.687a1.34,1.34,0,0,0-.127-.1c-1.279-.833-2.569,1.051-2.969,2.525q-1.622,5.973-3.811,11.774c-.728,1.927-1.476,3.859-2.324,5.737-1.13,2.5-1.777-1.276-2.261-2.591-1.623-4.413-2.94-8.933-4.633-13.321-2.059-5.336-3.307-10.814-5.535-16.05-6.052-14.232-11.905-28.641-19.965-41.89q-3.6-5.918-7.38-11.724c-1.325-2.033-2.938-3.994-4.066-6.114a36.21,36.21,0,0,0-4.074-6.108,25.677,25.677,0,0,1-2.576-3.075c-1.335-2.254-3.252-3.688-5.206-5.5q-4.674-4.324-9.691-8.259a155.64,155.64,0,0,0-16.941-11.569q-4.421-2.609-9.008-4.917c-8.452-4.251-18.183-5.491-27.587-5.07a87.51,87.51,0,0,0-39.463,11.105,3.438,3.438,0,0,0-1.9,2.143c2.493.543,2.417.373,5.049-.81,10.243-4.6,20.589-8.4,32.105-9.113,9.155-.57,17.68-.441,26.069,3.924,10.8,5.622,21.166,11.791,29.79,20.457,5.293,5.32,10.647,10.687,14.918,16.837,1.5,2.163,3.492,4.005,5.006,6.205a197.025,197.025,0,0,1,23.952,47.39c1.422,4.092,2.763,8.212,4.074,12.341,1.165,3.667,2.724,7.069,3.826,10.73q.456,1.512.879,3.033c.631,2.276.869,4.629,1.561,6.886.5,1.644,1.065,3.273,1.6,4.907.376,1.151,1.214,2.712,1.044,3.922a50.106,50.106,0,0,1-5.711-4.1l-5.823-4.231c-.795-.577-2.1-1.067-2.584-.215-.772.986.243,2.347,1.186,3.17l21.525,18.772c.988.861,2.368,1.769,3.494,1.1a3.185,3.185,0,0,0,1.162-1.951c1.513-5.055,3.508-10.061,4.448-15.221a30.763,30.763,0,0,1,.867-4.885q.444-2.566.865-5.137a31.215,31.215,0,0,0,.723-4.09c.048-1.6.058-3.207.087-4.81A2.674,2.674,0,0,0,1132.21,973.687Z" transform="translate(-663.066 3408.295) rotate(-85)" fill="#ff6c00"/>
  </g>
</svg>
