<svg id="Group_1078" data-name="Group 1078" xmlns="http://www.w3.org/2000/svg" width="62.942" height="93.644" viewBox="0 0 62.942 93.644">
  <path id="Path_2492" data-name="Path 2492" d="M31.472,30.7a31.3,31.3,0,0,0-18.536,6.059V24.714a18.535,18.535,0,1,1,37.07,0,3.089,3.089,0,0,0,6.178,0,24.713,24.713,0,1,0-49.427,0V42.586c0,.042.01.08.012.121A31.464,31.464,0,0,0,46.475,89.843a3.089,3.089,0,1,0-2.95-5.429,25.247,25.247,0,1,1,12.1-14.72,3.089,3.089,0,1,0,5.9,1.836A31.494,31.494,0,0,0,31.472,30.7Z" fill="#f78e1b"/>
  <path id="Path_2493" data-name="Path 2493" d="M36.195,67.2V84.823a3.089,3.089,0,1,0,6.178,0V67.2a3.089,3.089,0,0,0-6.178,0Z" transform="translate(-7.813 -13.839)" fill="#f78e1b"/>
</svg>
