<svg id="Group_1079" data-name="Group 1079" xmlns="http://www.w3.org/2000/svg" width="68.69" height="102.437" viewBox="0 0 68.69 102.437">
  <path id="Path_2494" data-name="Path 2494" d="M34.345,0A34.35,34.35,0,0,0,14.733,62.547v9.709A3.371,3.371,0,0,0,18.1,75.627H50.578a3.371,3.371,0,0,0,3.371-3.371V60.642a3.371,3.371,0,1,0-6.742,0v8.243h-9.49V48.14a3.371,3.371,0,1,0-6.742,0V68.884h-9.5V60.726a3.37,3.37,0,0,0-1.6-2.869A27.6,27.6,0,1,1,60.353,43.606,3.371,3.371,0,0,0,66.7,45.872,34.359,34.359,0,0,0,34.345,0Z" fill="#f78e1b"/>
  <path id="Path_2495" data-name="Path 2495" d="M53.108,97.146h-32.5a3.371,3.371,0,0,0,0,6.742h32.5a3.371,3.371,0,1,0,0-6.742Z" transform="translate(-2.486 -14.013)" fill="#f78e1b"/>
  <path id="Path_2496" data-name="Path 2496" d="M46.355,111.826H30.1a3.371,3.371,0,1,0,0,6.742H46.355a3.371,3.371,0,0,0,0-6.742Z" transform="translate(-3.855 -16.131)" fill="#f78e1b"/>
</svg>
