<svg xmlns="http://www.w3.org/2000/svg" xmlns:xlink="http://www.w3.org/1999/xlink" viewBox="0 0 307.71 307.71"><defs><style>.cls-1{fill:none;}.cls-2{clip-path:url(#clip-path);}.cls-3{fill:#00d2ee;}.cls-4{fill:#01d1ed;}.cls-5{fill:#02d1ed;}.cls-6{fill:#03d0ec;}.cls-7{fill:#04cfec;}.cls-8{fill:#05cfeb;}.cls-9{fill:#06ceeb;}.cls-10{fill:#07cdea;}.cls-11{fill:#08ccea;}.cls-12{fill:#09cce9;}.cls-13{fill:#0acbe9;}.cls-14{fill:#0bcae8;}.cls-15{fill:#0ccae8;}.cls-16{fill:#0dc9e7;}.cls-17{fill:#0ec8e7;}.cls-18{fill:#0fc8e6;}.cls-19{fill:#10c7e5;}.cls-20{fill:#11c6e5;}.cls-21{fill:#12c6e4;}.cls-22{fill:#13c5e4;}.cls-23{fill:#14c4e3;}.cls-24{fill:#15c3e3;}.cls-25{fill:#16c3e2;}.cls-26{fill:#17c2e2;}.cls-27{fill:#18c1e1;}.cls-28{fill:#19c1e1;}.cls-29{fill:#1ac0e0;}.cls-30{fill:#1bbfe0;}.cls-31{fill:#1cbfdf;}.cls-32{fill:#1dbedf;}.cls-33{fill:#1ebdde;}.cls-34{fill:#1fbddd;}.cls-35{fill:#20bcdd;}.cls-36{fill:#21bbdc;}.cls-37{fill:#22badc;}.cls-38{fill:#23badb;}.cls-39{fill:#24b9db;}.cls-40{fill:#25b8da;}.cls-41{fill:#26b8da;}.cls-42{fill:#27b7d9;}.cls-43{fill:#28b6d9;}.cls-44{fill:#29b6d8;}.cls-45{fill:#2ab5d8;}.cls-46{fill:#2bb4d7;}.cls-47{fill:#2cb4d6;}.cls-48{fill:#2db3d6;}.cls-49{fill:#2eb2d5;}.cls-50{fill:#2fb1d5;}.cls-51{fill:#30b1d4;}.cls-52{fill:#31b0d4;}.cls-53{fill:#32afd3;}.cls-54{fill:#33afd3;}.cls-55{fill:#34aed2;}.cls-56{fill:#35add2;}.cls-57{fill:#36add1;}.cls-58{fill:#37acd1;}.cls-59{fill:#38abd0;}.cls-60{fill:#39abd0;}.cls-61{fill:#3aaacf;}.cls-62{fill:#3ba9ce;}.cls-63{fill:#3ca8ce;}.cls-64{fill:#3da8cd;}.cls-65{fill:#3ea7cd;}.cls-66{fill:#3fa6cc;}.cls-67{fill:#40a6cc;}.cls-68{fill:#41a5cb;}.cls-69{fill:#42a4cb;}.cls-70{fill:#43a4ca;}.cls-71{fill:#44a3ca;}.cls-72{fill:#45a2c9;}.cls-73{fill:#46a2c9;}.cls-74{fill:#47a1c8;}.cls-75{fill:#48a0c8;}.cls-76{fill:#499fc7;}.cls-77{fill:#4a9fc6;}.cls-78{fill:#4b9ec6;}.cls-79{fill:#4c9dc5;}.cls-80{fill:#4d9dc5;}.cls-81{fill:#4e9cc4;}.cls-82{fill:#4f9bc4;}.cls-83{fill:#509bc3;}.cls-84{fill:#519ac3;}.cls-85{fill:#5299c2;}.cls-86{fill:#5399c2;}.cls-87{fill:#5498c1;}.cls-88{fill:#5597c1;}.cls-89{fill:#5696c0;}.cls-90{fill:#5796c0;}.cls-91{fill:#5895bf;}.cls-92{fill:#5994be;}.cls-93{fill:#5a94be;}.cls-94{fill:#5b93bd;}.cls-95{fill:#5c92bd;}.cls-96{fill:#5d92bc;}.cls-97{fill:#5e91bc;}.cls-98{fill:#5f90bb;}.cls-99{fill:#6090bb;}.cls-100{fill:#618fba;}.cls-101{fill:#628eba;}.cls-102{fill:#638db9;}.cls-103{fill:#648db9;}.cls-104{fill:#658cb8;}.cls-105{fill:#668bb7;}.cls-106{fill:#678bb7;}.cls-107{fill:#688ab6;}.cls-108{fill:#6989b6;}.cls-109{fill:#6a89b5;}.cls-110{fill:#6b88b5;}.cls-111{fill:#6c87b4;}.cls-112{fill:#6d87b4;}.cls-113{fill:#6e86b3;}.cls-114{fill:#6f85b3;}.cls-115{fill:#7084b2;}.cls-116{fill:#7184b2;}.cls-117{fill:#7283b1;}.cls-118{fill:#7382b1;}.cls-119{fill:#7482b0;}.cls-120{fill:#7581af;}.cls-121{fill:#7680af;}.cls-122{fill:#7780ae;}.cls-123{fill:#787fae;}.cls-124{fill:#797ead;}.cls-125{fill:#7a7ead;}.cls-126{fill:#7b7dac;}.cls-127{fill:#7d7cac;}.cls-128{fill:#7e7bab;}.cls-129{fill:#7f7bab;}.cls-130{fill:#807aaa;}.cls-131{fill:#8179aa;}.cls-132{fill:#8279a9;}.cls-133{fill:#8378a9;}.cls-134{fill:#8477a8;}.cls-135{fill:#8577a7;}.cls-136{fill:#8676a7;}.cls-137{fill:#8775a6;}.cls-138{fill:#8875a6;}.cls-139{fill:#8974a5;}.cls-140{fill:#8a73a5;}.cls-141{fill:#8b72a4;}.cls-142{fill:#8c72a4;}.cls-143{fill:#8d71a3;}.cls-144{fill:#8e70a3;}.cls-145{fill:#8f70a2;}.cls-146{fill:#906fa2;}.cls-147{fill:#916ea1;}.cls-148{fill:#926ea1;}.cls-149{fill:#936da0;}.cls-150{fill:#946c9f;}.cls-151{fill:#956c9f;}.cls-152{fill:#966b9e;}.cls-153{fill:#976a9e;}.cls-154{fill:#98699d;}.cls-155{fill:#99699d;}.cls-156{fill:#9a689c;}.cls-157{fill:#9b679c;}.cls-158{fill:#9c679b;}.cls-159{fill:#9d669b;}.cls-160{fill:#9e659a;}.cls-161{fill:#9f659a;}.cls-162{fill:#a06499;}.cls-163{fill:#a16398;}.cls-164{fill:#a26398;}.cls-165{fill:#a36297;}.cls-166{fill:#a46197;}.cls-167{fill:#a56096;}.cls-168{fill:#a66096;}.cls-169{fill:#a75f95;}.cls-170{fill:#a85e95;}.cls-171{fill:#a95e94;}.cls-172{fill:#aa5d94;}.cls-173{fill:#ab5c93;}.cls-174{fill:#ac5c93;}.cls-175{fill:#ad5b92;}.cls-176{fill:#ae5a92;}.cls-177{fill:#af5a91;}.cls-178{fill:#b05990;}.cls-179{fill:#b15890;}.cls-180{fill:#b2578f;}.cls-181{fill:#b3578f;}.cls-182{fill:#b4568e;}.cls-183{fill:#b5558e;}.cls-184{fill:#b6558d;}.cls-185{fill:#b7548d;}.cls-186{fill:#b8538c;}.cls-187{fill:#b9538c;}.cls-188{fill:#ba528b;}.cls-189{fill:#bb518b;}.cls-190{fill:#bc518a;}.cls-191{fill:#bd508a;}.cls-192{fill:#be4f89;}.cls-193{fill:#bf4e88;}.cls-194{fill:#c04e88;}.cls-195{fill:#c14d87;}.cls-196{fill:#c24c87;}.cls-197{fill:#c34c86;}.cls-198{fill:#c44b86;}.cls-199{fill:#c54a85;}.cls-200{fill:#c64a85;}.cls-201{fill:#c74984;}.cls-202{fill:#c84884;}.cls-203{fill:#c94883;}.cls-204{fill:#ca4783;}.cls-205{fill:#cb4682;}.cls-206{fill:#cc4582;}.cls-207{fill:#cd4581;}.cls-208{fill:#ce4480;}.cls-209{fill:#cf4380;}.cls-210{fill:#d0437f;}.cls-211{fill:#d1427f;}.cls-212{fill:#d2417e;}.cls-213{fill:#d3417e;}.cls-214{fill:#d4407d;}.cls-215{fill:#d53f7d;}.cls-216{fill:#d63f7c;}.cls-217{fill:#d73e7c;}.cls-218{fill:#d83d7b;}.cls-219{fill:#d93c7b;}.cls-220{fill:#da3c7a;}.cls-221{fill:#db3b79;}.cls-222{fill:#dc3a79;}.cls-223{fill:#dd3a78;}.cls-224{fill:#de3978;}.cls-225{fill:#df3877;}.cls-226{fill:#e03877;}.cls-227{fill:#e13776;}.cls-228{fill:#e23676;}.cls-229{fill:#e33675;}.cls-230{fill:#e43575;}.cls-231{fill:#e53474;}.cls-232{fill:#e63374;}.cls-233{fill:#e73373;}.cls-234{fill:#e83273;}.cls-235{fill:#e93172;}.cls-236{fill:#ea3171;}.cls-237{fill:#eb3071;}.cls-238{fill:#ec2f70;}.cls-239{fill:#ed2f70;}.cls-240{fill:#ee2e6f;}.cls-241{fill:#ef2d6f;}.cls-242{fill:#f02d6e;}.cls-243{fill:#f12c6e;}.cls-244{fill:#f22b6d;}.cls-245{fill:#f32a6d;}.cls-246{fill:#f42a6c;}.cls-247{fill:#f5296c;}.cls-248{fill:#f6286b;}.cls-249{fill:#f7286b;}.cls-250{fill:#f8276a;}.cls-251{fill:#fff;}</style><clipPath id="clip-path"><circle class="cls-1" cx="153.86" cy="153.86" r="147.77"/></clipPath></defs><g id="Layer_2" data-name="Layer 2"><g id="ëÎÓÈ_1" data-name="ëÎÓÈ 1"><g class="cls-2"><polygon class="cls-3" points="92.65 6.09 6.09 92.65 6.09 6.09 92.65 6.09"/><polygon class="cls-3" points="94.33 6.09 6.09 94.33 6.09 92.65 92.65 6.09 94.33 6.09"/><polygon class="cls-4" points="96.02 6.09 6.09 96.02 6.09 94.33 94.33 6.09 96.02 6.09"/><polygon class="cls-5" points="97.7 6.09 6.09 97.7 6.09 96.02 96.02 6.09 97.7 6.09"/><polygon class="cls-6" points="99.39 6.09 6.09 99.39 6.09 97.7 97.7 6.09 99.39 6.09"/><polygon class="cls-7" points="101.08 6.09 6.09 101.08 6.09 99.39 99.39 6.09 101.08 6.09"/><polygon class="cls-8" points="102.76 6.09 6.09 102.76 6.09 101.08 101.08 6.09 102.76 6.09"/><polygon class="cls-9" points="104.45 6.09 6.09 104.45 6.09 102.76 102.76 6.09 104.45 6.09"/><polygon class="cls-10" points="106.13 6.09 6.09 106.13 6.09 104.45 104.45 6.09 106.13 6.09"/><polygon class="cls-11" points="107.82 6.09 6.09 107.82 6.09 106.13 106.13 6.09 107.82 6.09"/><polygon class="cls-12" points="109.5 6.09 6.09 109.5 6.09 107.82 107.82 6.09 109.5 6.09"/><polygon class="cls-13" points="111.19 6.09 6.09 111.19 6.09 109.5 109.5 6.09 111.19 6.09"/><polygon class="cls-14" points="112.87 6.09 6.09 112.87 6.09 111.19 111.19 6.09 112.87 6.09"/><polygon class="cls-15" points="114.56 6.09 6.09 114.56 6.09 112.87 112.87 6.09 114.56 6.09"/><polygon class="cls-16" points="116.24 6.09 6.09 116.24 6.09 114.56 114.56 6.09 116.24 6.09"/><polygon class="cls-17" points="117.93 6.09 6.09 117.93 6.09 116.24 116.24 6.09 117.93 6.09"/><polygon class="cls-18" points="119.61 6.09 6.09 119.61 6.09 117.93 117.93 6.09 119.61 6.09"/><polygon class="cls-19" points="121.3 6.09 6.09 121.3 6.09 119.61 119.61 6.09 121.3 6.09"/><polygon class="cls-20" points="122.98 6.09 6.09 122.98 6.09 121.3 121.3 6.09 122.98 6.09"/><polygon class="cls-21" points="124.67 6.09 6.09 124.67 6.09 122.98 122.98 6.09 124.67 6.09"/><polygon class="cls-22" points="126.36 6.09 6.09 126.36 6.09 124.67 124.67 6.09 126.36 6.09"/><polygon class="cls-23" points="128.04 6.09 6.09 128.04 6.09 126.36 126.36 6.09 128.04 6.09"/><polygon class="cls-24" points="129.73 6.09 6.09 129.73 6.09 128.04 128.04 6.09 129.73 6.09"/><polygon class="cls-25" points="131.41 6.09 6.09 131.41 6.09 129.73 129.73 6.09 131.41 6.09"/><polygon class="cls-26" points="133.1 6.09 6.09 133.1 6.09 131.41 131.41 6.09 133.1 6.09"/><polygon class="cls-27" points="134.78 6.09 6.09 134.78 6.09 133.1 133.1 6.09 134.78 6.09"/><polygon class="cls-28" points="136.47 6.09 6.09 136.47 6.09 134.78 134.78 6.09 136.47 6.09"/><polygon class="cls-29" points="138.15 6.09 6.09 138.15 6.09 136.47 136.47 6.09 138.15 6.09"/><polygon class="cls-30" points="139.84 6.09 6.09 139.84 6.09 138.15 138.15 6.09 139.84 6.09"/><polygon class="cls-31" points="141.52 6.09 6.09 141.52 6.09 139.84 139.84 6.09 141.52 6.09"/><polygon class="cls-32" points="143.21 6.09 6.09 143.21 6.09 141.52 141.52 6.09 143.21 6.09"/><polygon class="cls-33" points="144.89 6.09 6.09 144.89 6.09 143.21 143.21 6.09 144.89 6.09"/><polygon class="cls-34" points="146.58 6.09 6.09 146.58 6.09 144.89 144.89 6.09 146.58 6.09"/><polygon class="cls-35" points="148.26 6.09 6.09 148.26 6.09 146.58 146.58 6.09 148.26 6.09"/><polygon class="cls-36" points="149.95 6.09 6.09 149.95 6.09 148.26 148.26 6.09 149.95 6.09"/><polygon class="cls-37" points="151.63 6.09 6.09 151.63 6.09 149.95 149.95 6.09 151.63 6.09"/><polygon class="cls-38" points="153.32 6.09 6.09 153.32 6.09 151.63 151.63 6.09 153.32 6.09"/><polygon class="cls-39" points="155 6.09 6.09 155 6.09 153.32 153.32 6.09 155 6.09"/><polygon class="cls-40" points="156.69 6.09 6.09 156.69 6.09 155 155 6.09 156.69 6.09"/><polygon class="cls-41" points="158.38 6.09 6.09 158.38 6.09 156.69 156.69 6.09 158.38 6.09"/><polygon class="cls-42" points="160.06 6.09 6.09 160.06 6.09 158.38 158.38 6.09 160.06 6.09"/><polygon class="cls-43" points="161.75 6.09 6.09 161.75 6.09 160.06 160.06 6.09 161.75 6.09"/><polygon class="cls-44" points="163.43 6.09 6.09 163.43 6.09 161.75 161.75 6.09 163.43 6.09"/><polygon class="cls-45" points="165.12 6.09 6.09 165.12 6.09 163.43 163.43 6.09 165.12 6.09"/><polygon class="cls-46" points="166.8 6.09 6.09 166.8 6.09 165.12 165.12 6.09 166.8 6.09"/><polygon class="cls-47" points="168.49 6.09 6.09 168.49 6.09 166.8 166.8 6.09 168.49 6.09"/><polygon class="cls-48" points="170.17 6.09 6.09 170.17 6.09 168.49 168.49 6.09 170.17 6.09"/><polygon class="cls-49" points="171.86 6.09 6.09 171.86 6.09 170.17 170.17 6.09 171.86 6.09"/><polygon class="cls-50" points="173.54 6.09 6.09 173.54 6.09 171.86 171.86 6.09 173.54 6.09"/><polygon class="cls-51" points="175.23 6.09 6.09 175.23 6.09 173.54 173.54 6.09 175.23 6.09"/><polygon class="cls-52" points="176.91 6.09 6.09 176.91 6.09 175.23 175.23 6.09 176.91 6.09"/><polygon class="cls-53" points="178.6 6.09 6.09 178.6 6.09 176.91 176.91 6.09 178.6 6.09"/><polygon class="cls-54" points="180.28 6.09 6.09 180.28 6.09 178.6 178.6 6.09 180.28 6.09"/><polygon class="cls-55" points="181.97 6.09 6.09 181.97 6.09 180.28 180.28 6.09 181.97 6.09"/><polygon class="cls-56" points="183.66 6.09 6.09 183.66 6.09 181.97 181.97 6.09 183.66 6.09"/><polygon class="cls-57" points="185.34 6.09 6.09 185.34 6.09 183.66 183.66 6.09 185.34 6.09"/><polygon class="cls-58" points="187.03 6.09 6.09 187.03 6.09 185.34 185.34 6.09 187.03 6.09"/><polygon class="cls-59" points="188.71 6.09 6.09 188.71 6.09 187.03 187.03 6.09 188.71 6.09"/><polygon class="cls-60" points="190.4 6.09 6.09 190.4 6.09 188.71 188.71 6.09 190.4 6.09"/><polygon class="cls-61" points="192.08 6.09 6.09 192.08 6.09 190.4 190.4 6.09 192.08 6.09"/><polygon class="cls-62" points="193.77 6.09 6.09 193.77 6.09 192.08 192.08 6.09 193.77 6.09"/><polygon class="cls-63" points="195.45 6.09 6.09 195.45 6.09 193.77 193.77 6.09 195.45 6.09"/><polygon class="cls-64" points="197.14 6.09 6.09 197.14 6.09 195.45 195.45 6.09 197.14 6.09"/><polygon class="cls-65" points="198.82 6.09 6.09 198.82 6.09 197.14 197.14 6.09 198.82 6.09"/><polygon class="cls-66" points="200.51 6.09 6.09 200.51 6.09 198.82 198.82 6.09 200.51 6.09"/><polygon class="cls-67" points="202.19 6.09 6.09 202.19 6.09 200.51 200.51 6.09 202.19 6.09"/><polygon class="cls-68" points="203.88 6.09 6.09 203.88 6.09 202.19 202.19 6.09 203.88 6.09"/><polygon class="cls-69" points="205.56 6.09 6.09 205.56 6.09 203.88 203.88 6.09 205.56 6.09"/><polygon class="cls-70" points="207.25 6.09 6.09 207.25 6.09 205.56 205.56 6.09 207.25 6.09"/><polygon class="cls-71" points="208.93 6.09 6.09 208.93 6.09 207.25 207.25 6.09 208.93 6.09"/><polygon class="cls-72" points="210.62 6.09 6.09 210.62 6.09 208.93 208.93 6.09 210.62 6.09"/><polygon class="cls-73" points="212.31 6.09 6.09 212.31 6.09 210.62 210.62 6.09 212.31 6.09"/><polygon class="cls-74" points="213.99 6.09 6.09 213.99 6.09 212.31 212.31 6.09 213.99 6.09"/><polygon class="cls-75" points="215.68 6.09 6.09 215.68 6.09 213.99 213.99 6.09 215.68 6.09"/><polygon class="cls-76" points="217.36 6.09 6.09 217.36 6.09 215.68 215.68 6.09 217.36 6.09"/><polygon class="cls-77" points="219.05 6.09 6.09 219.05 6.09 217.36 217.36 6.09 219.05 6.09"/><polygon class="cls-78" points="220.73 6.09 6.09 220.73 6.09 219.05 219.05 6.09 220.73 6.09"/><polygon class="cls-79" points="222.42 6.09 6.09 222.42 6.09 220.73 220.73 6.09 222.42 6.09"/><polygon class="cls-80" points="224.1 6.09 6.09 224.1 6.09 222.42 222.42 6.09 224.1 6.09"/><polygon class="cls-81" points="225.79 6.09 6.09 225.79 6.09 224.1 224.1 6.09 225.79 6.09"/><polygon class="cls-82" points="227.47 6.09 6.09 227.47 6.09 225.79 225.79 6.09 227.47 6.09"/><polygon class="cls-83" points="229.16 6.09 6.09 229.16 6.09 227.47 227.47 6.09 229.16 6.09"/><polygon class="cls-84" points="230.84 6.09 6.09 230.84 6.09 229.16 229.16 6.09 230.84 6.09"/><polygon class="cls-85" points="232.53 6.09 6.09 232.53 6.09 230.84 230.84 6.09 232.53 6.09"/><polygon class="cls-86" points="234.21 6.09 6.09 234.21 6.09 232.53 232.53 6.09 234.21 6.09"/><polygon class="cls-87" points="235.9 6.09 6.09 235.9 6.09 234.21 234.21 6.09 235.9 6.09"/><polygon class="cls-88" points="237.58 6.09 6.09 237.58 6.09 235.9 235.9 6.09 237.58 6.09"/><polygon class="cls-89" points="239.27 6.09 6.09 239.27 6.09 237.58 237.58 6.09 239.27 6.09"/><polygon class="cls-90" points="240.96 6.09 6.09 240.96 6.09 239.27 239.27 6.09 240.96 6.09"/><polygon class="cls-91" points="242.36 6.09 242.5 6.23 6.23 242.5 6.09 242.36 6.09 240.96 240.96 6.09 242.36 6.09"/><rect class="cls-92" x="-42.28" y="124.19" width="334.13" height="1.19" transform="translate(-51.69 124.79) rotate(-45)"/><rect class="cls-93" x="-41.44" y="125.03" width="334.13" height="1.19" transform="translate(-52.04 125.63) rotate(-45)"/><rect class="cls-94" x="-40.59" y="125.88" width="334.13" height="1.19" transform="translate(-52.39 126.47) rotate(-45)"/><rect class="cls-95" x="-39.75" y="126.72" width="334.13" height="1.19" transform="translate(-52.74 127.3) rotate(-45)"/><rect class="cls-96" x="-38.91" y="127.56" width="334.13" height="1.19" transform="translate(-53.08 128.17) rotate(-45)"/><rect class="cls-97" x="-38.07" y="128.4" width="334.13" height="1.19" transform="translate(-53.43 128.99) rotate(-45)"/><rect class="cls-98" x="-37.22" y="129.25" width="334.13" height="1.19" transform="translate(-53.78 129.85) rotate(-45)"/><rect class="cls-99" x="-36.38" y="130.09" width="334.13" height="1.19" transform="translate(-54.13 130.67) rotate(-45)"/><rect class="cls-100" x="-35.54" y="130.93" width="334.13" height="1.19" transform="translate(-54.48 131.54) rotate(-45)"/><rect class="cls-101" x="-34.7" y="131.77" width="334.13" height="1.19" transform="translate(-54.83 132.37) rotate(-45)"/><rect class="cls-102" x="-33.85" y="132.62" width="334.13" height="1.19" transform="translate(-55.18 133.21) rotate(-45)"/><rect class="cls-103" x="-33.01" y="133.46" width="334.13" height="1.19" transform="translate(-55.53 134.05) rotate(-45)"/><rect class="cls-104" x="-32.17" y="134.3" width="334.13" height="1.19" transform="translate(-55.88 134.9) rotate(-45)"/><rect class="cls-105" x="-31.33" y="135.14" width="334.13" height="1.19" transform="translate(-56.23 135.74) rotate(-45)"/><rect class="cls-106" x="-30.48" y="135.99" width="334.13" height="1.19" transform="translate(-56.57 136.57) rotate(-45)"/><rect class="cls-107" x="-29.64" y="136.83" width="334.13" height="1.19" transform="translate(-56.92 137.44) rotate(-45)"/><rect class="cls-108" x="-28.8" y="137.67" width="334.13" height="1.19" transform="translate(-57.27 138.26) rotate(-45)"/><rect class="cls-109" x="-27.96" y="138.51" width="334.13" height="1.19" transform="translate(-57.62 139.12) rotate(-45)"/><rect class="cls-110" x="-27.11" y="139.36" width="334.13" height="1.19" transform="translate(-57.97 139.95) rotate(-45)"/><rect class="cls-111" x="-26.27" y="140.2" width="334.13" height="1.19" transform="translate(-58.32 140.8) rotate(-45)"/><rect class="cls-112" x="-25.43" y="141.04" width="334.13" height="1.19" transform="translate(-58.67 141.64) rotate(-45)"/><rect class="cls-113" x="-24.58" y="141.89" width="334.13" height="1.19" transform="translate(-59.02 142.48) rotate(-45)"/><rect class="cls-114" x="-23.74" y="142.73" width="334.13" height="1.19" transform="translate(-59.37 143.32) rotate(-45)"/><rect class="cls-115" x="-22.9" y="143.57" width="334.13" height="1.19" transform="translate(-59.72 144.15) rotate(-45)"/><rect class="cls-116" x="-22.06" y="144.41" width="334.13" height="1.19" transform="translate(-60.06 145.02) rotate(-45)"/><rect class="cls-117" x="-21.21" y="145.26" width="334.13" height="1.19" transform="translate(-60.41 145.84) rotate(-45)"/><rect class="cls-118" x="-20.37" y="146.1" width="334.13" height="1.19" transform="translate(-60.76 146.71) rotate(-45)"/><rect class="cls-119" x="-19.53" y="146.94" width="334.13" height="1.19" transform="translate(-61.11 147.52) rotate(-45)"/><rect class="cls-120" x="-18.69" y="147.78" width="334.13" height="1.19" transform="translate(-61.46 148.39) rotate(-45)"/><rect class="cls-121" x="-17.84" y="148.63" width="334.13" height="1.19" transform="translate(-61.81 149.22) rotate(-45)"/><rect class="cls-122" x="-17" y="149.47" width="334.13" height="1.19" transform="translate(-62.16 150.07) rotate(-45)"/><rect class="cls-123" x="-16.16" y="150.31" width="334.13" height="1.19" transform="translate(-62.51 150.91) rotate(-45)"/><rect class="cls-124" x="-15.32" y="151.15" width="334.13" height="1.19" transform="translate(-62.86 151.74) rotate(-45)"/><rect class="cls-125" x="-14.47" y="152" width="334.13" height="1.19" transform="translate(-63.21 152.61) rotate(-45)"/><rect class="cls-126" x="-13.63" y="152.84" width="334.13" height="1.19" transform="translate(-63.56 153.42) rotate(-45)"/><rect class="cls-127" x="-12.79" y="153.68" width="334.13" height="1.19" transform="translate(-63.9 154.29) rotate(-45)"/><rect class="cls-128" x="-11.94" y="154.53" width="334.13" height="1.19" transform="translate(-64.25 155.11) rotate(-45)"/><rect class="cls-129" x="-11.1" y="155.37" width="334.13" height="1.19" transform="translate(-64.6 155.98) rotate(-45)"/><rect class="cls-130" x="-10.26" y="156.21" width="334.13" height="1.19" transform="translate(-64.95 156.81) rotate(-45)"/><rect class="cls-131" x="-9.42" y="157.05" width="334.13" height="1.19" transform="translate(-65.3 157.65) rotate(-45)"/><rect class="cls-132" x="-8.57" y="157.9" width="334.13" height="1.19" transform="translate(-65.65 158.49) rotate(-45)"/><rect class="cls-133" x="-7.73" y="158.74" width="334.13" height="1.19" transform="translate(-66 159.34) rotate(-45)"/><rect class="cls-134" x="-6.89" y="159.58" width="334.13" height="1.19" transform="translate(-66.35 160.18) rotate(-45)"/><rect class="cls-135" x="-6.05" y="160.42" width="334.13" height="1.19" transform="translate(-66.7 161.01) rotate(-45)"/><rect class="cls-136" x="-5.2" y="161.27" width="334.13" height="1.19" transform="translate(-67.05 161.88) rotate(-45)"/><rect class="cls-137" x="-4.36" y="162.11" width="334.13" height="1.19" transform="translate(-67.39 162.69) rotate(-45)"/><rect class="cls-138" x="-3.52" y="162.95" width="334.13" height="1.19" transform="translate(-67.74 163.56) rotate(-45)"/><rect class="cls-139" x="-2.68" y="163.79" width="334.13" height="1.19" transform="translate(-68.09 164.38) rotate(-45)"/><rect class="cls-140" x="-1.83" y="164.64" width="334.13" height="1.19" transform="translate(-68.44 165.25) rotate(-45)"/><rect class="cls-141" x="-0.99" y="165.48" width="334.13" height="1.19" transform="translate(-68.79 166.07) rotate(-45)"/><rect class="cls-142" x="-0.15" y="166.32" width="334.13" height="1.19" transform="translate(-69.14 166.92) rotate(-45)"/><rect class="cls-143" x="0.69" y="167.16" width="334.13" height="1.19" transform="translate(-69.49 167.76) rotate(-45)"/><rect class="cls-144" x="1.54" y="168.01" width="334.13" height="1.19" transform="translate(-69.84 168.59) rotate(-45)"/><rect class="cls-145" x="2.38" y="168.85" width="334.13" height="1.19" transform="translate(-70.19 169.46) rotate(-45)"/><rect class="cls-146" x="3.22" y="169.69" width="334.13" height="1.19" transform="translate(-70.54 170.27) rotate(-45)"/><rect class="cls-147" x="4.07" y="170.54" width="334.13" height="1.19" transform="translate(-70.88 171.15) rotate(-45)"/><rect class="cls-148" x="4.91" y="171.38" width="334.13" height="1.19" transform="translate(-71.23 171.96) rotate(-45)"/><rect class="cls-149" x="5.75" y="172.22" width="334.13" height="1.19" transform="translate(-71.58 172.83) rotate(-45)"/><rect class="cls-150" x="6.59" y="173.06" width="334.13" height="1.19" transform="translate(-71.93 173.66) rotate(-45)"/><rect class="cls-151" x="7.44" y="173.91" width="334.13" height="1.19" transform="translate(-72.28 174.5) rotate(-45)"/><rect class="cls-152" x="8.28" y="174.75" width="334.13" height="1.19" transform="translate(-72.63 175.34) rotate(-45)"/><rect class="cls-153" x="9.12" y="175.59" width="334.13" height="1.19" transform="translate(-72.98 176.19) rotate(-45)"/><rect class="cls-154" x="9.96" y="176.43" width="334.13" height="1.19" transform="translate(-73.33 177.03) rotate(-45)"/><rect class="cls-155" x="10.81" y="177.28" width="334.13" height="1.19" transform="translate(-73.68 177.86) rotate(-45)"/><rect class="cls-156" x="11.65" y="178.12" width="334.13" height="1.19" transform="translate(-74.03 178.73) rotate(-45)"/><rect class="cls-157" x="12.49" y="178.96" width="334.13" height="1.19" transform="translate(-74.38 179.54) rotate(-45)"/><rect class="cls-158" x="13.33" y="179.8" width="334.13" height="1.19" transform="translate(-74.72 180.41) rotate(-45)"/><rect class="cls-159" x="14.18" y="180.65" width="334.13" height="1.19" transform="translate(-75.07 181.23) rotate(-45)"/><rect class="cls-160" x="15.02" y="181.49" width="334.13" height="1.19" transform="translate(-75.42 182.1) rotate(-45)"/><rect class="cls-161" x="15.86" y="182.33" width="334.13" height="1.19" transform="translate(-75.77 182.93) rotate(-45)"/><polygon class="cls-162" points="301.48 65.22 301.63 65.36 301.63 66.76 66.76 301.63 65.36 301.63 65.22 301.48 301.48 65.22"/><polygon class="cls-163" points="301.63 68.44 68.44 301.63 66.76 301.63 301.63 66.76 301.63 68.44"/><polygon class="cls-164" points="301.63 70.13 70.13 301.63 68.44 301.63 301.63 68.44 301.63 70.13"/><polygon class="cls-165" points="301.63 71.81 71.81 301.63 70.13 301.63 301.63 70.13 301.63 71.81"/><polygon class="cls-166" points="301.63 73.5 73.5 301.63 71.81 301.63 301.63 71.81 301.63 73.5"/><polygon class="cls-167" points="301.63 75.19 75.19 301.63 73.5 301.63 301.63 73.5 301.63 75.19"/><polygon class="cls-168" points="301.63 76.87 76.87 301.63 75.19 301.63 301.63 75.19 301.63 76.87"/><polygon class="cls-169" points="301.63 78.56 78.56 301.63 76.87 301.63 301.63 76.87 301.63 78.56"/><polygon class="cls-170" points="301.63 80.24 80.24 301.63 78.56 301.63 301.63 78.56 301.63 80.24"/><polygon class="cls-171" points="301.63 81.93 81.93 301.63 80.24 301.63 301.63 80.24 301.63 81.93"/><polygon class="cls-172" points="301.63 83.61 83.61 301.63 81.93 301.63 301.63 81.93 301.63 83.61"/><polygon class="cls-173" points="301.63 85.3 85.3 301.63 83.61 301.63 301.63 83.61 301.63 85.3"/><polygon class="cls-174" points="301.63 86.98 86.98 301.63 85.3 301.63 301.63 85.3 301.63 86.98"/><polygon class="cls-175" points="301.63 88.67 88.67 301.63 86.98 301.63 301.63 86.98 301.63 88.67"/><polygon class="cls-176" points="301.63 90.35 90.35 301.63 88.67 301.63 301.63 88.67 301.63 90.35"/><polygon class="cls-177" points="301.63 92.04 92.04 301.63 90.35 301.63 301.63 90.35 301.63 92.04"/><polygon class="cls-178" points="301.63 93.72 93.72 301.63 92.04 301.63 301.63 92.04 301.63 93.72"/><polygon class="cls-179" points="301.63 95.41 95.41 301.63 93.72 301.63 301.63 93.72 301.63 95.41"/><polygon class="cls-180" points="301.63 97.09 97.09 301.63 95.41 301.63 301.63 95.41 301.63 97.09"/><polygon class="cls-181" points="301.63 98.78 98.78 301.63 97.09 301.63 301.63 97.09 301.63 98.78"/><polygon class="cls-182" points="301.63 100.47 100.47 301.63 98.78 301.63 301.63 98.78 301.63 100.47"/><polygon class="cls-183" points="301.63 102.15 102.15 301.63 100.47 301.63 301.63 100.47 301.63 102.15"/><polygon class="cls-184" points="301.63 103.83 103.84 301.63 102.15 301.63 301.63 102.15 301.63 103.83"/><polygon class="cls-185" points="301.63 105.52 105.52 301.63 103.84 301.63 301.63 103.83 301.63 105.52"/><polygon class="cls-186" points="301.63 107.21 107.21 301.63 105.52 301.63 301.63 105.52 301.63 107.21"/><polygon class="cls-187" points="301.63 108.89 108.89 301.63 107.21 301.63 301.63 107.21 301.63 108.89"/><polygon class="cls-188" points="301.63 110.58 110.58 301.63 108.89 301.63 301.63 108.89 301.63 110.58"/><polygon class="cls-189" points="301.63 112.26 112.26 301.63 110.58 301.63 301.63 110.58 301.63 112.26"/><polygon class="cls-190" points="301.63 113.95 113.95 301.63 112.26 301.63 301.63 112.26 301.63 113.95"/><polygon class="cls-191" points="301.63 115.63 115.63 301.63 113.95 301.63 301.63 113.95 301.63 115.63"/><polygon class="cls-192" points="301.63 117.32 117.32 301.63 115.63 301.63 301.63 115.63 301.63 117.32"/><polygon class="cls-193" points="301.63 119 119 301.63 117.32 301.63 301.63 117.32 301.63 119"/><polygon class="cls-194" points="301.63 120.69 120.69 301.63 119 301.63 301.63 119 301.63 120.69"/><polygon class="cls-195" points="301.63 122.37 122.37 301.63 120.69 301.63 301.63 120.69 301.63 122.37"/><polygon class="cls-196" points="301.63 124.06 124.06 301.63 122.37 301.63 301.63 122.37 301.63 124.06"/><polygon class="cls-197" points="301.63 125.74 125.74 301.63 124.06 301.63 301.63 124.06 301.63 125.74"/><polygon class="cls-198" points="301.63 127.43 127.43 301.63 125.74 301.63 301.63 125.74 301.63 127.43"/><polygon class="cls-199" points="301.63 129.12 129.12 301.63 127.43 301.63 301.63 127.43 301.63 129.12"/><polygon class="cls-200" points="301.63 130.8 130.8 301.63 129.12 301.63 301.63 129.12 301.63 130.8"/><polygon class="cls-201" points="301.63 132.49 132.49 301.63 130.8 301.63 301.63 130.8 301.63 132.49"/><polygon class="cls-202" points="301.63 134.17 134.17 301.63 132.49 301.63 301.63 132.49 301.63 134.17"/><polygon class="cls-203" points="301.63 135.86 135.86 301.63 134.17 301.63 301.63 134.17 301.63 135.86"/><polygon class="cls-204" points="301.63 137.54 137.54 301.63 135.86 301.63 301.63 135.86 301.63 137.54"/><polygon class="cls-205" points="301.63 139.23 139.23 301.63 137.54 301.63 301.63 137.54 301.63 139.23"/><polygon class="cls-206" points="301.63 140.91 140.91 301.63 139.23 301.63 301.63 139.23 301.63 140.91"/><polygon class="cls-207" points="301.63 142.6 142.6 301.63 140.91 301.63 301.63 140.91 301.63 142.6"/><polygon class="cls-208" points="301.63 144.28 144.28 301.63 142.6 301.63 301.63 142.6 301.63 144.28"/><polygon class="cls-209" points="301.63 145.97 145.97 301.63 144.28 301.63 301.63 144.28 301.63 145.97"/><polygon class="cls-210" points="301.63 147.65 147.65 301.63 145.97 301.63 301.63 145.97 301.63 147.65"/><polygon class="cls-211" points="301.63 149.34 149.34 301.63 147.65 301.63 301.63 147.65 301.63 149.34"/><polygon class="cls-212" points="301.63 151.02 151.02 301.63 149.34 301.63 301.63 149.34 301.63 151.02"/><polygon class="cls-213" points="301.63 152.71 152.71 301.63 151.02 301.63 301.63 151.02 301.63 152.71"/><polygon class="cls-214" points="301.63 154.39 154.39 301.63 152.71 301.63 301.63 152.71 301.63 154.39"/><polygon class="cls-215" points="301.63 156.08 156.08 301.63 154.39 301.63 301.63 154.39 301.63 156.08"/><polygon class="cls-216" points="301.63 157.76 157.76 301.63 156.08 301.63 301.63 156.08 301.63 157.76"/><polygon class="cls-217" points="301.63 159.45 159.45 301.63 157.76 301.63 301.63 157.76 301.63 159.45"/><polygon class="cls-218" points="301.63 161.13 161.13 301.63 159.45 301.63 301.63 159.45 301.63 161.13"/><polygon class="cls-219" points="301.63 162.82 162.82 301.63 161.13 301.63 301.63 161.13 301.63 162.82"/><polygon class="cls-220" points="301.63 164.51 164.51 301.63 162.82 301.63 301.63 162.82 301.63 164.51"/><polygon class="cls-221" points="301.63 166.19 166.19 301.63 164.51 301.63 301.63 164.51 301.63 166.19"/><polygon class="cls-222" points="301.63 167.88 167.88 301.63 166.19 301.63 301.63 166.19 301.63 167.88"/><polygon class="cls-223" points="301.63 169.56 169.56 301.63 167.88 301.63 301.63 167.88 301.63 169.56"/><polygon class="cls-224" points="301.63 171.25 171.25 301.63 169.56 301.63 301.63 169.56 301.63 171.25"/><polygon class="cls-225" points="301.63 172.93 172.93 301.63 171.25 301.63 301.63 171.25 301.63 172.93"/><polygon class="cls-226" points="301.63 174.62 174.62 301.63 172.93 301.63 301.63 172.93 301.63 174.62"/><polygon class="cls-227" points="301.63 176.3 176.3 301.63 174.62 301.63 301.63 174.62 301.63 176.3"/><polygon class="cls-228" points="301.63 177.99 177.99 301.63 176.3 301.63 301.63 176.3 301.63 177.99"/><polygon class="cls-229" points="301.63 179.67 179.67 301.63 177.99 301.63 301.63 177.99 301.63 179.67"/><polygon class="cls-230" points="301.63 181.36 181.36 301.63 179.67 301.63 301.63 179.67 301.63 181.36"/><polygon class="cls-231" points="301.63 183.04 183.04 301.63 181.36 301.63 301.63 181.36 301.63 183.04"/><polygon class="cls-232" points="301.63 184.73 184.73 301.63 183.04 301.63 301.63 183.04 301.63 184.73"/><polygon class="cls-233" points="301.63 186.41 186.41 301.63 184.73 301.63 301.63 184.73 301.63 186.41"/><polygon class="cls-234" points="301.63 188.1 188.1 301.63 186.41 301.63 301.63 186.41 301.63 188.1"/><polygon class="cls-235" points="301.63 189.78 189.78 301.63 188.1 301.63 301.63 188.1 301.63 189.78"/><polygon class="cls-236" points="301.63 191.47 191.47 301.63 189.78 301.63 301.63 189.78 301.63 191.47"/><polygon class="cls-237" points="301.63 193.16 193.16 301.63 191.47 301.63 301.63 191.47 301.63 193.16"/><polygon class="cls-238" points="301.63 194.84 194.84 301.63 193.16 301.63 301.63 193.16 301.63 194.84"/><polygon class="cls-239" points="301.63 196.53 196.53 301.63 194.84 301.63 301.63 194.84 301.63 196.53"/><polygon class="cls-240" points="301.63 198.21 198.21 301.63 196.53 301.63 301.63 196.53 301.63 198.21"/><polygon class="cls-241" points="301.63 199.9 199.9 301.63 198.21 301.63 301.63 198.21 301.63 199.9"/><polygon class="cls-242" points="301.63 201.58 201.58 301.63 199.9 301.63 301.63 199.9 301.63 201.58"/><polygon class="cls-243" points="301.63 203.27 203.27 301.63 201.58 301.63 301.63 201.58 301.63 203.27"/><polygon class="cls-244" points="301.63 204.95 204.95 301.63 203.27 301.63 301.63 203.27 301.63 204.95"/><polygon class="cls-245" points="301.63 206.64 206.64 301.63 204.95 301.63 301.63 204.95 301.63 206.64"/><polygon class="cls-246" points="301.63 208.32 208.32 301.63 206.64 301.63 301.63 206.64 301.63 208.32"/><polygon class="cls-247" points="301.63 210.01 210.01 301.63 208.32 301.63 301.63 208.32 301.63 210.01"/><polygon class="cls-248" points="301.63 211.69 211.69 301.63 210.01 301.63 301.63 210.01 301.63 211.69"/><polygon class="cls-249" points="301.63 213.38 213.38 301.63 211.69 301.63 301.63 211.69 301.63 213.38"/><polygon class="cls-250" points="301.63 215.06 215.06 301.63 213.38 301.63 301.63 213.38 301.63 215.06"/><polygon class="cls-250" points="215.06 301.63 301.63 215.06 301.63 301.63 215.06 301.63"/></g><path class="cls-251" d="M153.86,307.71C69,307.71,0,238.69,0,153.86S69,0,153.86,0,307.71,69,307.71,153.86,238.69,307.71,153.86,307.71Zm0-295.53c-78.13,0-141.68,63.55-141.68,141.68S75.73,295.54,153.86,295.54,295.54,232,295.54,153.86,232,12.18,153.86,12.18Z"/><path class="cls-251" d="M153.86,160.31a42.38,42.38,0,1,1,42.37-42.38A42.43,42.43,0,0,1,153.86,160.31Zm0-72.58a30.2,30.2,0,1,0,30.2,30.2A30.24,30.24,0,0,0,153.86,87.73Z"/><path class="cls-251" d="M214.65,232.16a6.09,6.09,0,0,1-5.76-4.11,58.16,58.16,0,0,0-110.07,0,6.08,6.08,0,0,1-11.51-4,70.33,70.33,0,0,1,133.1,0,6.09,6.09,0,0,1-3.79,7.73A5.9,5.9,0,0,1,214.65,232.16Z"/></g></g></svg>