<svg xmlns="http://www.w3.org/2000/svg" xmlns:xlink="http://www.w3.org/1999/xlink" width="1813.08" height="509.111" viewBox="0 0 1813.08 509.111">
  <defs>
    <clipPath id="clip-path">
      <rect id="Rectangle_808" data-name="Rectangle 808" width="1796.106" height="476.664" transform="translate(1796.106 476.664) rotate(-180)" fill="#fbd3b2"/>
    </clipPath>
  </defs>
  <g id="Group_1082" data-name="Group 1082" transform="translate(146.406 -2324.098)">
    <path id="Path_2504" data-name="Path 2504" d="M96.409,0h1699.7V492.136H89.661C40.142,492.136,0,454.607,0,408.311V90.135C0,40.355,43.164,0,96.409,0Z" transform="translate(1658.187 2824.721) rotate(180)" fill="#fbd3b2" opacity="0.301"/>
    <g id="Group_1074" data-name="Group 1074" transform="translate(-137.919 2334.809)">
      <g id="Group_1073" data-name="Group 1073" transform="translate(0 0)" clip-path="url(#clip-path)">
        <path id="Path_2474" data-name="Path 2474" d="M1073.99,569.5l-.013-.008c-36.47-24.251-90.208-43.325-155.412-55.168-53.165-9.652-110.851-14.014-168.711-12.871l-2.855.065q-16.088.369-32.142,1.286l-.04-.085q-3.492.322-7,.567c-49.31,3.376-101.013-5.21-127.726-22.97l-.007-.008c-26.7-17.757-20.5-39.442,11.352-54.428l-.02-.01c90.715-43.141,108.2-105.362,31.748-156.212S398.472,194.074,257,203.452l-.013-.01c-49.316,3.373-101.02-5.213-127.726-22.97l-.013-.008c-26.692-17.757-20.5-39.439,11.359-54.426a162.094,162.094,0,0,1,32.969-10.86,265.169,265.169,0,0,1,36.8-5.487l-.02-.013,1.441-.1c2.728-.186,5.469-.352,8.21-.525,238.317-15.038,487.072,26.9,615.791,112.507,89.415,59.468,103,128.112,52.331,188.977,46.188,3.676,91.409,9.44,134.809,17.323,110.731,20.106,201.913,52.457,263.689,93.544,34.249,22.779,14.413,52.007-44.314,65.291S1108.233,592.279,1073.99,569.5Z" transform="translate(800.105 80.232)" fill="#fbd3b2" opacity="0.379"/>
        <path id="Path_2475" data-name="Path 2475" d="M6.55,438.884C-11.617,547.977,131.44,555.225,325.606,454.711,515.2,356.564,684.645,190.059,704.614,82.244,710.673,49.53,702.545,25.73,683.084,11,665.638-2.209,608.979,22.2,571.757,58.852h0c-23.328,22.97-31.748,44.026-21.084,52.506,11.18,8.883,15.7,23.07,11.91,42.459-12.325,63.067-110.4,159.919-220.819,218.054-116.9,61.545-203.582,57.837-192.7-7.5,9-54.028,81.892-133.053,172.682-191.775,31.82-20.581,56.378-47.4,59.389-65.481h0c4.3-25.837-35.954-22.3-81.451,7.009C145.668,213.341,21.792,347.353,6.55,438.884Z" transform="matrix(0.809, 0.588, -0.588, 0.809, 421.796, -126.088)" fill="#fbd3b2" opacity="0.379"/>
      </g>
    </g>
  </g>
</svg>
