<svg xmlns="http://www.w3.org/2000/svg" viewBox="0 0 353.92 353.96">
  <g id="Layer_2" data-name="Layer 2">
    <g id="_ÎÓÈ_1" data-name="—ÎÓÈ_1">
      <g>
        <path d="M255,0H99A99.1,99.1,0,0,0,0,99V255a99.08,99.08,0,0,0,99,99H255a99.07,99.07,0,0,0,98.94-99V99A99.09,99.09,0,0,0,255,0Zm66.4,255a66.39,66.39,0,0,1-66.4,66.4H99A66.39,66.39,0,0,1,32.58,255V99A66.39,66.39,0,0,1,99,32.58H255A66.39,66.39,0,0,1,321.38,99Z"/>
        <path d="M177,118.07A58.92,58.92,0,1,1,118.05,177,58.91,58.91,0,0,1,177,118.07m0-32.58A91.5,91.5,0,1,0,268.46,177,91.6,91.6,0,0,0,177,85.49Z"/>
        <circle cx="273.23" cy="80.72" r="21.58" transform="translate(22.95 216.85) rotate(-45)"/>
      </g>
    </g>
  </g>
</svg>
