<svg xmlns="http://www.w3.org/2000/svg" viewBox="0 0 369.58 303.97">
  <g id="Layer_2" data-name="Layer 2">
    <g id="_ÎÓÈ_1" data-name="—ÎÓÈ_1">
      <path d="M327.31,47.63c17.41-11.33,25.63-18.3,32.25-41.91,0,0-31.65,18.07-48.46,18.07-.25,0-.55,0-.82.06A76.23,76.23,0,0,0,180.34,92l-.87.46C96.13,96,24.59,13.77,24.59,13.77c-25.75,53.3,3,86.74,21.82,103-10.1-1.34-20.84-3.13-32.55-8.94,0,16.81,3.31,56.87,59,75.12-10.3,2.62-20.76,1.23-32.55,1.1,0,0,8.23,48.38,69.39,52.91C81.64,258.61,51.42,271.3,0,268.62c40.06,23.13,116,58.48,210.23,14.13L226,273.68A209.59,209.59,0,0,0,330.8,101.87l1.28-27.05c14.78-6.23,32.13-28,37.5-37.08C354.42,42.93,344,45.72,327.31,47.63Z"/>
    </g>
  </g>
</svg>
