<svg id="Livello_1" data-name="Livello 1" xmlns="http://www.w3.org/2000/svg" viewBox="0 0 850.41 180.24">
  <g>
    <g>
      <path d="M68.92,379.14c-7.08,38.14-32.87,59.08-71.45,59.08C-50.92,438.22-79,403.33-79,350.3c0-52.8,29.68-86.76,77.84-86.76,37.21,0,63,20.93,69.62,59.07H40.62c-5.26-23-21-34.88-42.69-34.88-26.26,0-47,21.86-47,62.57C-49.1,391.23-28.78,414-2.3,414c22.6,0,38.12-11.63,43.37-34.89Z" transform="translate(79 -263.54)" style="fill: #0f0f0f"/>
      <path d="M78.18,443.77v-9.86H83c5.53,0,7.87-.43,10.43-8l.63-1.4-20.73-58H87.11l13,41.83,13-41.83h13L105.93,424.7c-5.42,15.07-9.14,19.07-22,19.07Z" transform="translate(79 -263.54)" style="fill: #0f0f0f"/>
      <path d="M158,415.71c8.5,0,14.46-7.48,14.46-20,0-12.25-6-19.94-14.46-19.94s-14.79,6.5-14.79,19.94,6.38,20,14.79,20m-14.26-69.47v28.07c3.41-5.75,9.36-9.1,17-9.1,13.61,0,24.89,11.92,24.89,30.45,0,18.75-11.28,30.56-24.89,30.56-7.66,0-13.61-3.36-17-9.1v7.69H131V346.24Z" transform="translate(79 -263.54)" style="fill: #0f0f0f"/>
      <path d="M205,389.91h29.78c-.32-9.1-7.13-14.63-14.57-14.63-6,0-14,3.69-15.21,14.63m0,9.43c.85,10.84,8.29,16.15,15.52,16.15,6.71,0,11.81-2.6,14-8.13H247c-2.55,9.32-11.28,18.86-25.95,18.86-18.4,0-28.93-14.2-28.93-31,0-17.55,11.91-30,28.08-30,17.54,0,28.61,14.62,27.44,34.13Z" transform="translate(79 -263.54)" style="fill: #0f0f0f"/>
      <path d="M287.17,379.62a58.8,58.8,0,0,0-6.06-.33c-8,0-12.55,3.26-12.55,15v30.56H255.91v-58.3h12.44v10.4c3.08-6.5,8.61-10.4,15.53-10.51,1,0,2.34.11,3.29.21Z" transform="translate(79 -263.54)" style="fill: #0f0f0f"/>
    </g>
    <polygon points="376.92 82.7 431.48 82.7 431.48 94.19 390.43 94.19 390.43 115.22 429.25 115.22 429.25 126.59 390.43 126.59 390.43 149.68 431.48 149.68 431.48 161.27 376.92 161.27 376.92 82.7" style="fill: #0f0f0f;opacity: 0.89"/>
    <g style="opacity: 0.89">
      <path d="M362.37,351.12H375v15.39h11.49v9.32H375v31.75c0,6,1.38,7.37,6.81,7.37h4.57v9.86h-9.36c-12.23,0-14.68-3.36-14.68-15.28v-33.7h-8.5v-9.32h8.5Z" transform="translate(79 -263.54)" style="fill: #0f0f0f"/>
      <path d="M408.11,374.63c3.3-6.06,9.25-9.42,17.33-9.42,13.83,0,19.47,9.1,19.47,23v36.63H432.25V391.32c0-7.8-1.06-15.6-10.85-15.6s-13.29,7.58-13.29,18.1v31H395.45V346.24h12.66Z" transform="translate(79 -263.54)" style="fill: #0f0f0f"/>
    </g>
    <path d="M468.1,366.51v58.3H455.44v-58.3Zm0-20.27v13H455.44v-13Z" transform="translate(79 -263.54)" style="fill: #0f0f0f;opacity: 0.89"/>
    <g style="opacity: 0.89">
      <path d="M530.78,386.45H518.45c-1.17-6.18-6.39-10.52-13.3-10.52-8,0-15,6-15,19.73s7.23,19.83,14.67,19.83c6.28,0,12.34-2.82,14-10.62h12.34c-2.55,13.65-14.36,21.35-26.59,21.35-16.59,0-27.55-13.11-27.55-30.45s11-30.56,28.08-30.56c12.55,0,23.4,8.34,25.63,21.24" transform="translate(79 -263.54)" style="fill: #0f0f0f"/>
      <path d="M571.52,382.44c-1.38-5.31-6.17-7.37-12.55-7.37-5.53,0-10.64,2.49-10.64,6.39s2.66,6,7.66,6.94l8.08,1.62c11.6,2.28,20.43,6,20.43,17.34,0,12.14-11.28,18.86-24.25,18.86-14,0-23.4-8.24-24.78-19.18H547.8c1.17,6.07,5.32,9.43,12.87,9.43,6.7,0,11.49-2.82,11.49-7.59s-4.26-6.83-9.89-8l-8.62-1.73c-9.68-2.06-17.23-6.29-17.23-17,0-10.29,11-16.9,23.29-16.9,11.17,0,21.38,5.52,23.72,17.23Z" transform="translate(79 -263.54)" style="fill: #0f0f0f"/>
    </g>
    <polygon points="681.62 154.55 722.46 154.55 722.46 161.27 674.49 161.27 674.5 82.7 681.62 82.7 681.62 154.55" style="fill: #0f0f0f;opacity: 0.63"/>
    <g style="opacity: 0.63">
      <path d="M669.84,420.26c10.64,0,20.21-5.64,20.21-22.11v-2.82c-23.29,2.6-33.29,5.86-33.29,14.85,0,6.18,5.42,10.08,13.08,10.08m20-4.34c-3.72,6.18-10.84,10.3-21.48,10.3s-18.93-6.29-18.93-15.93c0-13.33,12.76-18,40.31-20.92v-2.06c0-13.33-7.77-16.14-16-16.14-9.78,0-15.52,5.41-16,13.11H650.8c1.6-11.6,10.32-19.07,23.4-19.07,13.29,0,22.12,5.63,22.12,23,0,8.13-.1,13.33-.1,18,0,6.61.31,12.25.63,18.64h-6.7Z" transform="translate(79 -263.54)" style="fill: #0f0f0f"/>
      <path d="M732.59,420.15c10.64,0,18.19-8.78,18.19-24.28s-7.55-24.27-18.19-24.27c-8.61,0-18.4,6.94-18.4,24.27s9.79,24.28,18.4,24.28m1.39,6.07a21.67,21.67,0,0,1-19.36-11v9.54H708V346.24h6.59v30.34A21.57,21.57,0,0,1,734,365.53c13.08,0,23.93,11,23.92,30.34S747.06,426.22,734,426.22" transform="translate(79 -263.54)" style="fill: #0f0f0f"/>
    </g>
    <rect x="841.16" y="151.09" width="9.25" height="10.19" style="fill: #0f0f0f"/>
  </g>
</svg>
