<svg id="Livello_1" data-name="Livello 1" xmlns="http://www.w3.org/2000/svg" xmlns:xlink="http://www.w3.org/1999/xlink" viewBox="0 0 771.41 443.77">
  <defs>
    <linearGradient id="Sfumatura_senza_nome_48" data-name="Sfumatura senza nome 48" x1="801.97" y1="101.08" x2="-287.56" y2="124.8" gradientUnits="userSpaceOnUse">
      <stop offset="0" stop-color="#ffe00a"/>
      <stop offset="0.02" stop-color="#fedb0a"/>
      <stop offset="0.1" stop-color="#fcc80b"/>
      <stop offset="0.19" stop-color="#fabd0b"/>
      <stop offset="0.28" stop-color="#fab90b"/>
      <stop offset="0.57" stop-color="#f08231"/>
      <stop offset="0.77" stop-color="#ea6133"/>
      <stop offset="1" stop-color="#e63733"/>
    </linearGradient>
  </defs>
  <g>
    <g>
      <path d="M69.92,379.69c-3.3,17.78-15.32,27.53-33.29,27.53C14.08,407.22,1,391,1,366.25s13.83-40.42,36.27-40.42c17.33,0,29.35,9.75,32.44,27.53h-13C54.28,342.63,47,337.1,36.84,337.1c-12.23,0-21.91,10.19-21.91,29.15S24.4,396,36.74,396c10.52,0,17.76-5.42,20.2-16.26Z" transform="translate(-1 19)" style="fill: #0f0f0f"/>
      <path d="M79.18,424.77v-9.86H84c5.53,0,7.87-.43,10.43-8l.63-1.4-20.73-58H88.11l13,41.83,13-41.83h13L106.93,405.7c-5.42,15.07-9.14,19.07-22,19.07Z" transform="translate(-1 19)" style="fill: #0f0f0f"/>
      <path d="M159,396.71c8.5,0,14.46-7.48,14.46-20,0-12.25-6-19.94-14.46-19.94s-14.79,6.5-14.79,19.94,6.38,20,14.79,20m-14.26-69.47v28.07c3.41-5.75,9.36-9.1,17-9.1,13.61,0,24.89,11.92,24.89,30.45,0,18.75-11.28,30.56-24.89,30.56-7.66,0-13.61-3.36-17-9.1v7.69H132V327.24Z" transform="translate(-1 19)" style="fill: #0f0f0f"/>
      <path d="M206,370.91h29.78c-.32-9.1-7.13-14.63-14.57-14.63-6,0-14,3.69-15.21,14.63m0,9.43c.85,10.84,8.29,16.15,15.52,16.15,6.71,0,11.81-2.6,14-8.13H248c-2.55,9.32-11.28,18.86-25.95,18.86-18.4,0-28.93-14.2-28.93-31,0-17.55,11.91-30,28.08-30,17.54,0,28.61,14.62,27.44,34.13Z" transform="translate(-1 19)" style="fill: #0f0f0f"/>
      <path d="M288.17,360.62a58.8,58.8,0,0,0-6.06-.33c-8,0-12.55,3.26-12.55,15v30.56H256.91v-58.3h12.44v10.4c3.08-6.5,8.61-10.4,15.53-10.51,1,0,2.34.11,3.29.21Z" transform="translate(-1 19)" style="fill: #0f0f0f"/>
    </g>
    <polygon points="297.92 346.24 352.48 346.24 352.48 357.73 311.43 357.73 311.43 378.75 350.25 378.75 350.25 390.13 311.43 390.13 311.43 413.21 352.48 413.21 352.48 424.81 297.92 424.81 297.92 346.24" style="fill: #0f0f0f"/>
    <g>
      <path d="M363.37,332.12H376v15.39h11.49v9.32H376v31.75c0,6,1.38,7.37,6.81,7.37h4.57v9.86h-9.36c-12.23,0-14.68-3.36-14.68-15.28v-33.7h-8.5v-9.32h8.5Z" transform="translate(-1 19)" style="fill: #0f0f0f"/>
      <path d="M409.11,355.63c3.3-6.06,9.25-9.42,17.33-9.42,13.83,0,19.47,9.1,19.47,23v36.63H433.25V372.32c0-7.8-1.06-15.6-10.85-15.6s-13.29,7.58-13.29,18.1v31H396.45V327.24h12.66Z" transform="translate(-1 19)" style="fill: #0f0f0f"/>
    </g>
    <path d="M469.1,347.51v58.3H456.44v-58.3Zm0-20.27v13H456.44v-13Z" transform="translate(-1 19)" style="fill: #0f0f0f"/>
    <g>
      <path d="M531.78,367.45H519.45c-1.17-6.18-6.39-10.52-13.3-10.52-8,0-15,6-15,19.73s7.23,19.83,14.67,19.83c6.28,0,12.34-2.82,14-10.62h12.34c-2.55,13.65-14.36,21.35-26.59,21.35-16.59,0-27.55-13.11-27.55-30.45s11-30.56,28.08-30.56c12.55,0,23.4,8.34,25.63,21.24" transform="translate(-1 19)" style="fill: #0f0f0f"/>
      <path d="M572.52,363.44c-1.38-5.31-6.17-7.37-12.55-7.37-5.53,0-10.64,2.49-10.64,6.39s2.66,6,7.66,6.94l8.08,1.62c11.6,2.28,20.43,6,20.43,17.34,0,12.14-11.28,18.86-24.25,18.86-14,0-23.4-8.24-24.78-19.18H548.8c1.17,6.07,5.32,9.43,12.87,9.43,6.7,0,11.49-2.82,11.49-7.59s-4.26-6.83-9.89-8l-8.62-1.73c-9.68-2.06-17.23-6.29-17.23-17,0-10.29,11-16.9,23.29-16.9,11.17,0,21.38,5.52,23.72,17.23Z" transform="translate(-1 19)" style="fill: #0f0f0f"/>
    </g>
    <polygon points="602.62 418.09 643.46 418.09 643.46 424.81 595.49 424.81 595.5 346.24 602.62 346.24 602.62 418.09" style="fill: #0f0f0f"/>
    <g>
      <path d="M670.84,401.26c10.64,0,20.21-5.64,20.21-22.11v-2.82c-23.29,2.6-33.29,5.86-33.29,14.85,0,6.18,5.42,10.08,13.08,10.08m20-4.34c-3.72,6.18-10.84,10.3-21.48,10.3s-18.93-6.29-18.93-15.93c0-13.33,12.76-18,40.31-20.92v-2.06c0-13.33-7.77-16.14-16-16.14-9.78,0-15.52,5.41-16,13.11H651.8c1.6-11.6,10.32-19.07,23.4-19.07,13.29,0,22.12,5.63,22.12,23,0,8.13-.1,13.33-.1,18,0,6.61.31,12.25.63,18.64h-6.7Z" transform="translate(-1 19)" style="fill: #0f0f0f"/>
      <path d="M733.59,401.15c10.64,0,18.19-8.78,18.19-24.28s-7.55-24.27-18.19-24.27c-8.61,0-18.4,6.94-18.4,24.27s9.79,24.28,18.4,24.28m1.39,6.07a21.67,21.67,0,0,1-19.36-11v9.54H709V327.24h6.59v30.34A21.57,21.57,0,0,1,735,346.53c13.08,0,23.93,11,23.92,30.34S748.06,407.22,735,407.22" transform="translate(-1 19)" style="fill: #0f0f0f"/>
    </g>
    <rect x="762.16" y="414.62" width="9.25" height="10.19" style="fill: #0f0f0f"/>
    <g>
      <polygon points="71.22 0 71.21 0 71.22 0 71.22 0" style="fill: none"/>
      <polygon points="486.36 0 486.35 0 486.36 0 486.36 0" style="fill: none"/>
      <path d="M694.93,125.18h0a163.3,163.3,0,0,1-93.32-29,164.31,164.31,0,0,1-52.72-59.85l-.6-1.18c-2.26-4.45-4.34-9-6.19-13.65l-.1,0q-.48-1.59-1-3.15A57.11,57.11,0,0,0,487.36-19h0a57.13,57.13,0,0,0-53.58,37.34h0c-23.37,62.35-83.57,106.84-154,106.84s-130.6-44.49-154-106.84h0A57.12,57.12,0,0,0,72.22-19h0A57.09,57.09,0,0,0,18.05,56.15h0l.24.64c.44,1.21.91,2.4,1.37,3.61,40.16,104.56,141.62,179,260.15,179a277.92,277.92,0,0,0,207.47-92.9,279.61,279.61,0,0,0,49.4,43.59,277,277,0,0,0,158.27,49.31,57.1,57.1,0,1,0,0-114.2Zm-622.39-37a50,50,0,1,1,50-50A50,50,0,0,1,72.54,88.14Z" transform="translate(-1 19)" style="fill: url(#Sfumatura_senza_nome_48)"/>
    </g>
  </g>
</svg>
