<svg xmlns="http://www.w3.org/2000/svg" viewBox="0 0 342.03 119.92">
  <g id="Layer_2" data-name="Layer 2">
    <g id="Livello_1" data-name="Livello 1">
      <g>
        <polygon points="26.5 0 26.5 0 26.5 0 26.5 0" style="fill: #0f0f0f"/>
        <polygon points="219.18 0 219.18 0 219.19 0 219.18 0" style="fill: #0f0f0f"/>
        <path d="M315.52,66.92h0a75.78,75.78,0,0,1-43.31-13.48,76.24,76.24,0,0,1-24.47-27.78c-.1-.18-.19-.36-.28-.55q-1.58-3.09-2.87-6.33h-.05c-.15-.49-.31-1-.49-1.46A26.51,26.51,0,0,0,219.19,0h0a26.52,26.52,0,0,0-24.87,17.33h0a76.42,76.42,0,0,1-71.47,49.59A76.42,76.42,0,0,1,51.38,17.33h0A26.51,26.51,0,0,0,26.5,0h0A26.5,26.5,0,0,0,1.36,34.88h0l.11.3c.21.56.43,1.11.64,1.67a129.5,129.5,0,0,0,120.74,83.07,129,129,0,0,0,96.3-43.11A130,130,0,0,0,242.07,97a128.56,128.56,0,0,0,73.45,22.88,26.5,26.5,0,1,0,0-53ZM26.65,49.73a23.21,23.21,0,1,1,23.21-23.2A23.2,23.2,0,0,1,26.65,49.73Z" style="fill: #0f0f0f"/>
      </g>
    </g>
  </g>
</svg>
