<svg xmlns="http://www.w3.org/2000/svg" xmlns:xlink="http://www.w3.org/1999/xlink" width="331" height="175" viewBox="0 0 331 175">
  <defs>
    <clipPath id="clip-path">
      <rect id="Rectangle_895" data-name="Rectangle 895" width="331" height="175" transform="translate(176 3830)" fill="none"/>
    </clipPath>
  </defs>
  <g id="Mask_Group_14" data-name="Mask Group 14" transform="translate(-176 -3830)" clip-path="url(#clip-path)">
    <path id="Path_2516" data-name="Path 2516" d="M768.143,1128.8q-.052-.5-.12-1c-.985-7.247-1.161-14.578-2.073-21.84a214.968,214.968,0,0,0-4.389-23.893c-.958-3.94-2.075-7.827-3.2-11.722a15.066,15.066,0,0,1-.556-4.117c-.049-2.772-1.286-5.3-2.146-7.9a453.637,453.637,0,0,0-17.254-44.252q-4.889-10.827-10.341-21.387a25.9,25.9,0,0,1-2.184-4.766c-.3-1.07-.392-2.189-.729-3.254-1.3-4.106-4.462-7.823-6.875-11.282a153.475,153.475,0,0,0-18.292-21.744,147.323,147.323,0,0,0-15.8-13.47c-2.809-2.069-5.752-3.915-8.621-5.894-1.408-.97-2.364-2.713-3.846-3.516-1.348-.732-2.881-1.266-4.268-2-3.588-1.891-7.205-3.745-10.616-5.95a4.643,4.643,0,0,1-2.287-3.145c-.769-3.8-1.052-7.8-1.635-11.626a42.312,42.312,0,0,0-1.47-5.105c-2.473-8.986-4.925-18.023-8.792-26.531-2.068-4.547-4.088-9.117-6.123-13.681-6.439-14.438-12.8-29.2-21.929-42.182-8.212-11.682-18.115-22.067-28.522-31.8-5.249-4.911-10.641-9.665-16.071-14.373a33.1,33.1,0,0,1-5.69-6.361c-1.682-2.389-4.288-4.073-6.515-5.874L545.135,749.9c-3.519-2.849-6.947-6.161-10.712-8.67-3.158-2.106-6.034-4.884-8.986-7.273q-4.592-3.717-9.182-7.431c-2.244-1.817-3.915-4.062-6.3-5.7a106.084,106.084,0,0,1-8.672-6.353c1.855-.269,3.77-.158,5.636-.409a56.634,56.634,0,0,0,14.958-4.36c2.316-1.01,4.662-2.213,6.2-4.217s2.037-5.018.521-7.04a2.178,2.178,0,0,0-1.07-.836,2.892,2.892,0,0,0-1.79.262c-9.856,3.672-20.15,6.442-30.658,6.884a54.9,54.9,0,0,1-20.357-2.5c-3.045-.95-5.877-2.634-8.94-3.432s-5.707-2.978-8.357-4.638a3.945,3.945,0,0,0-5.345.071c-1.982,1.234-4.217,2.936-4.05,5.263a6.518,6.518,0,0,0,1.871,3.5l5.51,6.559a33.271,33.271,0,0,0,2.52,2.72,68.041,68.041,0,0,1,11.106,14.42,75.085,75.085,0,0,1,10.685,37.546,4.83,4.83,0,0,0,.243,1.828c.783,1.895,3.746,1.848,5.182.381s1.748-3.663,1.988-5.7c.916-7.816,1.822-15.683,1.51-23.564-.078-1.949-.229-3.9-.478-5.832-.1-.772-.213-1.542-.343-2.309-.138-.816-.841-2.5-.667-3.3.129-.587-.156-.712.569-.908,1.137-.305,2.536,1.4,3.248,2q2.011,1.706,4.026,3.41,4.791,4.058,9.582,8.117c1.593,1.348,3.15,2.767,4.791,4.057,1.012.8,2.235,1.172,3.234,1.962,3.523,2.787,5.832,6.829,9.378,9.524q1.9,1.447,3.757,2.949,3.712,3,7.227,6.241,4.02,3.7,7.769,7.676c2.157,2.291,3.959,4.693,6.642,6.341,3.081,1.891,5.727,5.053,8.385,7.5l8.741,8.038c10.348,9.516,20.748,19.176,29.158,30.5a208.789,208.789,0,0,1,24.745,42.42c6.293,14.736,9.714,30.259,14.754,45.4q.234.706.471,1.408c1.283,3.833,2.138,6.346-3.356,6.312-13.922-.091-19.958,9.724-24.737,20.512-5.352,12.084-10.312,24.518-10.636,37.886-.36,14.934-2.885,30.19,4.733,44.433,4.168,7.8,16.644,15.232,23.749,14.011a38.642,38.642,0,0,0,13.655-4.891c3.565-2.178,7.8-5.414,9.186-9.493,1.057-3.11,3.278-5.8,4.791-8.717a74.525,74.525,0,0,0,4.313-10.149,97.007,97.007,0,0,0,4.576-21.445,189.276,189.276,0,0,0,.216-30.766q-.218-3.7-.489-7.385c-.038-.512-.656-3.774-.136-4.03.614-.3,1.481.6,1.969.932q4.254,2.886,8.394,5.934a172.712,172.712,0,0,1,15.844,13.128,113.428,113.428,0,0,1,14.275,16.108,88.981,88.981,0,0,1,5.816,9.177c.872,1.588,1.573,3.3,2.513,4.845.639,1.05,1.57,1.821,2.293,2.8,2.256,3.063,3.67,7.1,5.316,10.521q2.638,5.486,5.18,11.015,5.088,11.054,9.809,22.274,5.769,13.694,11.023,27.6c8.067,21.327,13.519,43.149,15.247,66.028.945,12.514,1.323,25.141-.176,37.63-.46,3.843-1.226,7.447-1.23,11.286,0,2.126-.918,4.095-1.622,6.064l-2.785,7.789c-.3.845-.52,1.98.229,2.476a1.809,1.809,0,0,0,1.188.183,10.087,10.087,0,0,0,6.433-3.859,27.692,27.692,0,0,0,4.175-6.124c1.268-2.885,1.619-6.548,2.115-9.638.516-3.216.9-6.452,1.3-9.684a196.794,196.794,0,0,0,1.515-24.405A118.545,118.545,0,0,0,768.143,1128.8ZM641.9,968.074c.022,14.247-.788,31.9-10.241,47.825-2.037,3.432-3.169,8.444-8.363,8-4.878-.42-6.028-5.105-7.849-8.853-6.386-13.146-4.159-27.406-3.043-40.716,1.179-14.058,4.884-28.467,13.655-40.622,1.412-1.955,3-4,5.251-5.016a25.344,25.344,0,0,0,2.609-.988c.859-.509,1.55-1.166,2.6-.361a4.467,4.467,0,0,1,1.29,2.225,104.882,104.882,0,0,1,4.676,20.417c.325,2.605-.342,5.176-.332,7.814C642.168,961.223,642.066,964.649,641.9,968.074Z" transform="translate(1313.953 4122.331) rotate(135)" fill="#ff6c00"/>
  </g>
</svg>
