<svg xmlns="http://www.w3.org/2000/svg" width="174.073" height="47.327" viewBox="0 0 174.073 47.327">
  <g id="Group_1178" data-name="Group 1178" transform="translate(-296 -988.673)">
    <g id="Group_1095" data-name="Group 1095" transform="translate(295 989)">
      <path id="Rectangle_838" data-name="Rectangle 838" d="M21,0H139a5,5,0,0,1,5,5V47a0,0,0,0,1,0,0H21A21,21,0,0,1,0,26V21A21,21,0,0,1,21,0Z" transform="translate(1)" fill="red"/>
      <path id="Path_2518" data-name="Path 2518" d="M1098.736,365.568a23.663,23.663,0,1,0,23.664,23.663A23.663,23.663,0,0,0,1098.736,365.568Zm10.462,25.038-14.706,10.824a1.706,1.706,0,0,1-2.718-1.374V378.408a1.706,1.706,0,0,1,2.718-1.374l14.706,10.823A1.706,1.706,0,0,1,1109.2,390.606Z" transform="translate(-947.327 -365.895)" fill="#ff6c00"/>
    </g>
    <text id="More" transform="translate(334 1023)" fill="#fff" font-size="32" font-family="Nunito-ExtraBold, Nunito" font-weight="800"><tspan x="0" y="0">More</tspan></text>
  </g>
</svg>
