<svg xmlns="http://www.w3.org/2000/svg" width="794.204" height="837.576" viewBox="0 0 794.204 837.576">
  <path id="Path_2476" data-name="Path 2476" d="M753.689,902.874l-.009-.013a236.284,236.284,0,0,0-216.15-116.98c-.632.036-1.272.076-1.9.111-7.152.423-14.3,1.13-21.434,2.211l-.027-.147c-1.552.369-3.109.7-4.67.974a82.112,82.112,0,0,1-85.177-39.493l0-.013a82.112,82.112,0,0,1,7.57-93.579l-.013-.018c60.5-74.173,72.158-181.15,21.172-268.577S303.2,257.4,208.857,273.519l-.009-.018a82.12,82.12,0,0,1-85.177-39.493l-.009-.013a82.073,82.073,0,0,1,54.1-121.681l-.013-.022.961-.173c1.819-.32,3.647-.6,5.475-.9C343.117,85.36,509.006,157.46,594.846,304.65c59.628,102.244,68.689,220.264,34.9,324.91a402.7,402.7,0,0,1,89.9,29.783A398.207,398.207,0,0,1,895.492,820.175a82.078,82.078,0,1,1-141.8,82.7Z" transform="translate(-112.481 -106.043)" fill="#ff6c00" opacity="0.179"/>
</svg>
