<svg xmlns="http://www.w3.org/2000/svg" xmlns:xlink="http://www.w3.org/1999/xlink" width="491" height="947" viewBox="0 0 491 947">
  <defs>
    <clipPath id="clip-path">
      <rect id="Rectangle_894" data-name="Rectangle 894" width="491" height="947" transform="translate(1466 2207)" fill="none"/>
    </clipPath>
  </defs>
  <g id="Mask_Group_13" data-name="Mask Group 13" transform="translate(-1466 -2207)" clip-path="url(#clip-path)">
    <path id="Path_2503" data-name="Path 2503" d="M170.719,471.468c74.722,251.308,339.869,393.948,591.02,317.3,245.234-74.843,386.782-334.682,316.57-581.286A470.863,470.863,0,0,0,969.283,14.206c-44.477-47.575-122.617-37.269-153.633,20h0a95.6,95.6,0,0,0,13.708,110.18,279.119,279.119,0,0,1,63.314,114.38C932.581,402.458,851.129,554.028,709.26,600,559.066,648.668,399.08,563.914,354.335,413.415c-37.007-124.46,16.6-254.353,122.486-318.9C513.932,71.892,531.8,27.661,519.413-14h0C501.716-73.52,432.6-100,379.419-67.945,199.4,40.566,108.025,260.616,170.719,471.468Z" transform="matrix(0.799, 0.602, -0.602, 0.799, 1640.938, 2035.054)" fill="#f8ac6d" opacity="0.997"/>
  </g>
</svg>
