<svg xmlns="http://www.w3.org/2000/svg" xmlns:xlink="http://www.w3.org/1999/xlink" width="562" height="360" viewBox="0 0 562 360">
  <defs>
    <clipPath id="clip-path">
      <rect id="Rectangle_893" data-name="Rectangle 893" width="562" height="360" fill="none"/>
    </clipPath>
  </defs>
  <g id="Mask_Group_12" data-name="Mask Group 12" clip-path="url(#clip-path)">
    <path id="Path_2470" data-name="Path 2470" d="M1617.741,384.956h-.028c-79.2-.008-155.312-25.008-220.126-72.3-52.831-38.553-95.263-89.57-124.37-149-.477-.976-.946-1.969-1.415-2.945-5.315-11.069-10.228-22.386-14.59-33.993l-.231.085q-1.136-3.962-2.479-7.835C1235.545,64.708,1186.113,26,1128.11,26h-.021c-58,0-107.428,38.708-126.394,92.968h-.033C946.531,274.175,804.531,384.956,638.452,384.956s-308.074-110.781-363.2-265.988h-.033C256.249,64.708,206.818,26,148.814,26h-.021c-58,0-107.421,38.708-126.384,92.968A149.748,149.748,0,0,0,21.04,213.1h-.047c.182.533.366,1.056.55,1.588,1.047,3,2.158,5.982,3.239,8.977,94.739,260.314,334.069,445.581,613.671,445.581,194.225,0,369.008-89.413,489.407-231.261a673.651,673.651,0,0,0,116.529,108.508c110.051,80.313,239.158,122.753,373.353,122.753,74.389,0,134.693-63.636,134.693-142.145S1692.13,384.956,1617.741,384.956ZM149.569,292.743c-65.13,0-117.93-55.724-117.93-124.461s52.8-124.464,117.93-124.464S267.5,99.542,267.5,168.281,214.7,292.743,149.569,292.743Z" transform="translate(-1190.434 -309.245)"/>
  </g>
</svg>
