<svg id="Layer_1" data-name="Layer 1" xmlns="http://www.w3.org/2000/svg" xmlns:xlink="http://www.w3.org/1999/xlink" viewBox="0 0 1858.86 1052.56">
  <defs>
    <linearGradient id="Sfumatura_senza_nome_48" data-name="Sfumatura senza nome 48" x1="74.24" y1="19.74" x2="-13.83" y2="21.65" gradientUnits="userSpaceOnUse">
      <stop offset="0" stop-color="#fddf2e"/>
      <stop offset="0.02" stop-color="#fdd92d"/>
      <stop offset="0.1" stop-color="#fcc62b"/>
      <stop offset="0.19" stop-color="#fcbb29"/>
      <stop offset="0.28" stop-color="#fcb729"/>
      <stop offset="0.57" stop-color="#f4863c"/>
      <stop offset="0.77" stop-color="#ef6a3e"/>
      <stop offset="1" stop-color="#ed443f"/>
    </linearGradient>
    <linearGradient id="Sfumatura_senza_nome_48-2" x1="297.16" y1="307.39" x2="209.08" y2="309.31" xlink:href="#Sfumatura_senza_nome_48"/>
    <linearGradient id="Sfumatura_senza_nome_48-3" x1="670.16" y1="993.39" x2="582.09" y2="995.31" xlink:href="#Sfumatura_senza_nome_48"/>
    <linearGradient id="Sfumatura_senza_nome_48-4" x1="678.55" y1="476.64" x2="590.48" y2="478.56" xlink:href="#Sfumatura_senza_nome_48"/>
    <linearGradient id="Sfumatura_senza_nome_48-5" x1="696.45" y1="94.02" x2="608.38" y2="95.94" xlink:href="#Sfumatura_senza_nome_48"/>
    <linearGradient id="Sfumatura_senza_nome_48-6" x1="1372.42" y1="305.61" x2="1284.35" y2="307.53" xlink:href="#Sfumatura_senza_nome_48"/>
    <linearGradient id="Sfumatura_senza_nome_48-7" x1="244.48" y1="103.69" x2="47.62" y2="107.97" gradientTransform="translate(-61.09 106.57) rotate(-36.3)" xlink:href="#Sfumatura_senza_nome_48"/>
    <linearGradient id="Sfumatura_senza_nome_48-8" x1="916.95" y1="597.62" x2="720.08" y2="601.9" gradientTransform="translate(-61.09 106.57) rotate(-36.3)" xlink:href="#Sfumatura_senza_nome_48"/>
    <linearGradient id="Sfumatura_senza_nome_48-9" x1="1595.59" y1="1083.13" x2="1398.73" y2="1087.42" gradientTransform="translate(-61.09 106.57) rotate(-36.3)" xlink:href="#Sfumatura_senza_nome_48"/>
    <linearGradient id="Sfumatura_senza_nome_48-10" x1="66.73" y1="582.18" x2="-130.13" y2="586.47" gradientTransform="translate(-61.09 106.57) rotate(-36.3)" xlink:href="#Sfumatura_senza_nome_48"/>
    <linearGradient id="Sfumatura_senza_nome_48-11" x1="463.89" y1="1060.38" x2="267.03" y2="1064.67" gradientTransform="translate(-61.09 106.57) rotate(-36.3)" xlink:href="#Sfumatura_senza_nome_48"/>
    <linearGradient id="Sfumatura_senza_nome_48-12" x1="-113.79" y1="911.28" x2="-310.65" y2="915.57" gradientTransform="translate(-61.09 106.57) rotate(-36.3)" xlink:href="#Sfumatura_senza_nome_48"/>
    <linearGradient id="Sfumatura_senza_nome_48-13" x1="453.94" y1="266.2" x2="-2.18" y2="276.14" gradientTransform="translate(-1.73 -8.48) rotate(-11.89)" xlink:href="#Sfumatura_senza_nome_48"/>
    <linearGradient id="Sfumatura_senza_nome_48-14" x1="924.19" y1="1163.58" x2="468.06" y2="1173.51" gradientTransform="translate(-1.73 -8.48) rotate(-11.89)" xlink:href="#Sfumatura_senza_nome_48"/>
    <linearGradient id="Sfumatura_senza_nome_48-15" x1="757.54" y1="703.66" x2="301.41" y2="713.59" gradientTransform="translate(-1.73 -8.48) rotate(-11.89)" xlink:href="#Sfumatura_senza_nome_48"/>
    <linearGradient id="Sfumatura_senza_nome_48-16" x1="1244.51" y1="407.5" x2="788.39" y2="417.43" gradientTransform="translate(-1.73 -8.48) rotate(-11.89)" xlink:href="#Sfumatura_senza_nome_48"/>
    <linearGradient id="Sfumatura_senza_nome_48-17" x1="1661.37" y1="876.33" x2="1205.24" y2="886.26" gradientTransform="translate(-1.73 -8.48) rotate(-11.89)" xlink:href="#Sfumatura_senza_nome_48"/>
    <linearGradient id="Sfumatura_senza_nome_48-18" x1="433.39" y1="410.57" x2="-250.5" y2="425.46" gradientTransform="translate(246.8 -46.09) rotate(20.16)" xlink:href="#Sfumatura_senza_nome_48"/>
    <linearGradient id="Sfumatura_senza_nome_48-19" x1="1597.21" y1="-216" x2="913.33" y2="-201.1" gradientTransform="translate(246.8 -46.09) rotate(20.16)" xlink:href="#Sfumatura_senza_nome_48"/>
    <linearGradient id="Sfumatura_senza_nome_48-20" x1="1196.07" y1="169.2" x2="512.18" y2="184.09" gradientTransform="translate(246.8 -46.09) rotate(20.16)" xlink:href="#Sfumatura_senza_nome_48"/>
    <linearGradient id="Sfumatura_senza_nome_48-21" x1="113.53" y1="487.36" x2="2.24" y2="489.79" gradientTransform="matrix(1, 0.04, -0.04, 1, 6.58, 9.05)" xlink:href="#Sfumatura_senza_nome_48"/>
    <linearGradient id="Sfumatura_senza_nome_48-22" x1="493.06" y1="267.92" x2="381.77" y2="270.35" gradientTransform="matrix(1, 0.04, -0.04, 1, 6.58, 9.05)" xlink:href="#Sfumatura_senza_nome_48"/>
    <linearGradient id="Sfumatura_senza_nome_48-23" x1="876.09" y1="176.96" x2="764.8" y2="179.38" gradientTransform="matrix(1, 0.04, -0.04, 1, 6.58, 9.05)" xlink:href="#Sfumatura_senza_nome_48"/>
    <linearGradient id="Sfumatura_senza_nome_48-24" x1="1476.13" y1="629.5" x2="1364.84" y2="631.93" gradientTransform="matrix(1, 0.04, -0.04, 1, 6.58, 9.05)" xlink:href="#Sfumatura_senza_nome_48"/>
    <linearGradient id="Sfumatura_senza_nome_48-25" x1="685.85" y1="672.05" x2="574.56" y2="674.47" gradientTransform="matrix(1, 0.04, -0.04, 1, 6.58, 9.05)" xlink:href="#Sfumatura_senza_nome_48"/>
    <linearGradient id="Sfumatura_senza_nome_48-26" x1="178.33" y1="952.01" x2="67.04" y2="954.43" gradientTransform="matrix(1, 0.04, -0.04, 1, 6.58, 9.05)" xlink:href="#Sfumatura_senza_nome_48"/>
    <linearGradient id="Sfumatura_senza_nome_48-27" x1="609.22" y1="730.03" x2="-74.67" y2="744.92" gradientTransform="matrix(1, 0.04, -0.04, 1, 6.58, 9.05)" xlink:href="#Sfumatura_senza_nome_48"/>
    <linearGradient id="Sfumatura_senza_nome_48-28" x1="1921.34" y1="843.75" x2="1237.45" y2="858.64" gradientTransform="matrix(1, 0.04, -0.04, 1, 6.58, 9.05)" xlink:href="#Sfumatura_senza_nome_48"/>
  </defs>
  <g>
    <polygon points="4.62 0 4.62 0 4.62 0 4.62 0" style="fill: none"/>
    <polygon points="38.17 0 38.17 0 38.17 0 38.17 0" style="fill: none"/>
    <path d="M65.59,21.69h0a13.29,13.29,0,0,1-11.8-7.19.93.93,0,0,1-.05-.1c-.18-.35-.35-.72-.5-1.1h0a2.41,2.41,0,0,0-.08-.25,4.63,4.63,0,0,0-4.33-3h0a4.63,4.63,0,0,0-4.34,3h0a13.28,13.28,0,0,1-24.89,0h0a4.62,4.62,0,0,0-4.33-3h0a4.62,4.62,0,0,0-4.33,3,4.46,4.46,0,0,0-.29,1.6,4.7,4.7,0,0,0,.24,1.46h0l0,.05c0,.09.07.19.11.29a22.5,22.5,0,0,0,37.8,7,22.77,22.77,0,0,0,4,3.52,22.39,22.39,0,0,0,12.8,4,4.62,4.62,0,0,0,0-9.23Zm-50.32-3a4,4,0,1,1,4.05-4A4,4,0,0,1,15.27,18.69Z" transform="translate(-10.63 -10.03)" style="fill: url(#Sfumatura_senza_nome_48)"/>
  </g>
  <g>
    <polygon points="227.53 287.65 227.53 287.65 227.53 287.65 227.53 287.65" style="fill: none"/>
    <polygon points="261.09 287.65 261.09 287.65 261.09 287.65 261.09 287.65" style="fill: none"/>
    <path d="M288.5,309.34h0a13.29,13.29,0,0,1-11.8-7.19.41.41,0,0,1-.05-.09c-.18-.36-.35-.73-.5-1.11h0l-.08-.26a4.63,4.63,0,0,0-4.34-3h0a4.63,4.63,0,0,0-4.33,3h0a13.28,13.28,0,0,1-24.89,0h0a4.63,4.63,0,0,0-4.33-3h0a4.63,4.63,0,0,0-4.34,3,4.72,4.72,0,0,0-.28,1.6,4.43,4.43,0,0,0,.24,1.46h0v.05l.12.29a22.5,22.5,0,0,0,37.8,7,22.52,22.52,0,0,0,16.78,7.51,4.62,4.62,0,1,0,0-9.23Zm-50.31-3a4,4,0,1,1,4-4.05A4,4,0,0,1,238.19,306.35Z" transform="translate(-10.63 -10.03)" style="fill: url(#Sfumatura_senza_nome_48-2)"/>
  </g>
  <g>
    <polygon points="600.54 973.65 600.54 973.65 600.54 973.65 600.54 973.65" style="fill: none"/>
    <polygon points="634.1 973.65 634.1 973.65 634.1 973.65 634.1 973.65" style="fill: none"/>
    <path d="M661.51,995.34h0a13.29,13.29,0,0,1-11.8-7.19.41.41,0,0,1-.05-.09,11.06,11.06,0,0,1-.5-1.11h0l-.09-.26a4.62,4.62,0,0,0-4.33-3h0a4.62,4.62,0,0,0-4.33,3h0a13.28,13.28,0,0,1-24.89,0h0a4.63,4.63,0,0,0-4.34-3h0a4.63,4.63,0,0,0-4.33,3,4.72,4.72,0,0,0-.28,1.6,4.43,4.43,0,0,0,.24,1.46h0l0,0c0,.1.08.19.11.29a22.5,22.5,0,0,0,37.8,7,22.59,22.59,0,0,0,16.79,7.51,4.62,4.62,0,1,0,0-9.23Zm-50.31-3a4,4,0,1,1,4-4A4,4,0,0,1,611.2,992.34Z" transform="translate(-10.63 -10.03)" style="fill: url(#Sfumatura_senza_nome_48-3)"/>
  </g>
  <g>
    <polygon points="608.93 456.91 608.93 456.91 608.93 456.91 608.93 456.91" style="fill: none"/>
    <polygon points="642.49 456.91 642.49 456.91 642.49 456.91 642.49 456.91" style="fill: none"/>
    <path d="M669.9,478.59h0a13.3,13.3,0,0,1-11.8-7.18l-.05-.1a12,12,0,0,1-.5-1.1h0l-.09-.25a4.6,4.6,0,0,0-4.33-3h0a4.6,4.6,0,0,0-4.33,3h0a13.29,13.29,0,0,1-24.89,0h0a4.62,4.62,0,0,0-4.34-3h0a4.6,4.6,0,0,0-4.61,4.61,4.43,4.43,0,0,0,.24,1.46h0l0,.05c0,.1.08.2.11.29a22.5,22.5,0,0,0,37.8,7,22.89,22.89,0,0,0,4,3.53,22.43,22.43,0,0,0,12.79,4,4.62,4.62,0,1,0,0-9.23Zm-50.31-3a4,4,0,1,1,4-4A4,4,0,0,1,619.59,475.6Z" transform="translate(-10.63 -10.03)" style="fill: url(#Sfumatura_senza_nome_48-4)"/>
  </g>
  <g>
    <polygon points="626.83 74.29 626.83 74.29 626.83 74.29 626.83 74.29" style="fill: none"/>
    <polygon points="660.39 74.29 660.39 74.29 660.39 74.29 660.39 74.29" style="fill: none"/>
    <path d="M687.8,96h0A13.3,13.3,0,0,1,676,88.79a.47.47,0,0,0,0-.1c-.18-.36-.35-.73-.5-1.1h0l-.09-.25a4.6,4.6,0,0,0-4.33-3h0a4.6,4.6,0,0,0-4.33,3h0a13.3,13.3,0,0,1-24.9,0h0a4.6,4.6,0,0,0-4.33-3h0a4.6,4.6,0,0,0-4.61,4.61,4.7,4.7,0,0,0,.23,1.46h0l0,0,.11.3a22.51,22.51,0,0,0,37.8,7,22.77,22.77,0,0,0,4,3.53,22.41,22.41,0,0,0,12.8,4,4.62,4.62,0,0,0,0-9.23Zm-50.31-3a4,4,0,1,1,4-4A4,4,0,0,1,637.49,93Z" transform="translate(-10.63 -10.03)" style="fill: url(#Sfumatura_senza_nome_48-5)"/>
  </g>
  <g>
    <polygon points="1302.8 285.87 1302.8 285.87 1302.8 285.87 1302.8 285.87" style="fill: none"/>
    <polygon points="1336.36 285.87 1336.35 285.87 1336.36 285.87 1336.36 285.87" style="fill: none"/>
    <path d="M1363.77,307.56h0a13.29,13.29,0,0,1-11.81-7.19l0-.09c-.18-.36-.35-.73-.5-1.11h0a2,2,0,0,0-.08-.26,4.62,4.62,0,0,0-4.33-3h0a4.62,4.62,0,0,0-4.33,3h0a13.28,13.28,0,0,1-24.89,0h0a4.62,4.62,0,0,0-4.33-3h0a4.62,4.62,0,0,0-4.33,3,4.5,4.5,0,0,0-.29,1.6,4.7,4.7,0,0,0,.24,1.46h0l0,0c0,.1.07.19.11.29a22.5,22.5,0,0,0,37.8,7,22.52,22.52,0,0,0,16.79,7.51,4.62,4.62,0,0,0,0-9.23Zm-50.32-3a4,4,0,1,1,4-4A4,4,0,0,1,1313.45,304.56Z" transform="translate(-10.63 -10.03)" style="fill: url(#Sfumatura_senza_nome_48-6)"/>
  </g>
  <g>
    <polygon points="67.58 95.95 67.58 95.95 67.58 95.95 67.58 95.95" style="fill: none"/>
    <polygon points="128.04 51.55 128.04 51.55 128.04 51.55 128.04 51.55" style="fill: none"/>
    <path d="M184.32,60.37h0a29.74,29.74,0,0,1-30.78,2.68l-.21-.11c-.8-.41-1.59-.85-2.36-1.33v0l-.49-.35a10.33,10.33,0,0,0-11.8.3h0a10.32,10.32,0,0,0-3.81,11.17h0A29.7,29.7,0,0,1,90,105.69h0a10.3,10.3,0,0,0-11.79.29h0a10.32,10.32,0,0,0-3.8,11.17,10.35,10.35,0,0,0,4,5.57h0l.11.07.58.38a50.3,50.3,0,0,0,77.31-37.48,50.92,50.92,0,0,0,11.85,1.06A50,50,0,0,0,196.53,77a10.32,10.32,0,0,0-12.21-16.63Zm-94.6,61.18a9,9,0,1,1,1.94-12.63A9,9,0,0,1,89.72,121.55Z" transform="translate(-10.63 -10.03)" style="fill: url(#Sfumatura_senza_nome_48-7)"/>
  </g>
  <g>
    <polygon points="901.95 95.95 901.95 95.95 901.96 95.95 901.95 95.95" style="fill: none"/>
    <polygon points="962.41 51.55 962.41 51.55 962.41 51.55 962.41 51.55" style="fill: none"/>
    <path d="M1018.69,60.37h0a29.72,29.72,0,0,1-30.77,2.68l-.22-.11c-.8-.41-1.59-.85-2.36-1.33v0c-.16-.12-.32-.24-.49-.35a10.33,10.33,0,0,0-11.8.3h0a10.32,10.32,0,0,0-3.81,11.17h0a29.7,29.7,0,0,1-44.84,32.94h0a10.3,10.3,0,0,0-11.79.29h0a10.32,10.32,0,0,0,.15,16.74h0l.11.07.58.38a50.3,50.3,0,0,0,77.31-37.48,51,51,0,0,0,11.85,1.06A50,50,0,0,0,1030.91,77a10.32,10.32,0,0,0-12.22-16.63Zm-94.6,61.18A9,9,0,1,1,926,108.92,9,9,0,0,1,924.09,121.55Z" transform="translate(-10.63 -10.03)" style="fill: url(#Sfumatura_senza_nome_48-8)"/>
  </g>
  <g>
    <polygon points="1736.33 85.51 1736.33 85.51 1736.33 85.51 1736.33 85.51" style="fill: none"/>
    <polygon points="1796.78 41.1 1796.78 41.1 1796.78 41.1 1796.78 41.1" style="fill: none"/>
    <path d="M1853.06,49.93h0a29.49,29.49,0,0,1-16.69,5.75,29.79,29.79,0,0,1-14.08-3.07l-.22-.11c-.8-.41-1.59-.85-2.36-1.33v0c-.16-.12-.32-.24-.49-.35a10.33,10.33,0,0,0-11.8.29h0a10.33,10.33,0,0,0-3.81,11.17h0a29.7,29.7,0,0,1-44.84,32.94h0a10.33,10.33,0,0,0-11.8.3h0a10.31,10.31,0,0,0-2.21,14.42,10.58,10.58,0,0,0,2.36,2.32h0l.1.07.58.37a50.3,50.3,0,0,0,77.31-37.48A51,51,0,0,0,1837,76.31a50.17,50.17,0,0,0,28.32-9.75,10.32,10.32,0,1,0-12.22-16.63Zm-94.59,61.18a9,9,0,1,1,1.93-12.63A9,9,0,0,1,1758.47,111.11Z" transform="translate(-10.63 -10.03)" style="fill: url(#Sfumatura_senza_nome_48-9)"/>
  </g>
  <g>
    <polygon points="207.58 586.82 207.58 586.82 207.58 586.82 207.58 586.82" style="fill: none"/>
    <polygon points="268.04 542.42 268.04 542.42 268.04 542.42 268.04 542.42" style="fill: none"/>
    <path d="M324.32,551.24h0a29.68,29.68,0,0,1-30.78,2.68l-.21-.11c-.8-.41-1.59-.84-2.36-1.33v0l-.49-.35a10.33,10.33,0,0,0-11.8.3h0a10.32,10.32,0,0,0-3.81,11.17h0A29.7,29.7,0,0,1,230,596.56h0a10.3,10.3,0,0,0-11.79.29h0a10.32,10.32,0,0,0-3.8,11.17,10.35,10.35,0,0,0,4,5.57h0l.11.07.58.38a50.3,50.3,0,0,0,77.31-37.48,50.31,50.31,0,0,0,40.17-8.69,10.32,10.32,0,0,0-12.21-16.63Zm-94.6,61.18a9,9,0,1,1,1.94-12.63A9,9,0,0,1,229.72,612.42Z" transform="translate(-10.63 -10.03)" style="fill: url(#Sfumatura_senza_nome_48-10)"/>
  </g>
  <g>
    <polygon points="810.76 737.12 810.76 737.12 810.76 737.12 810.76 737.12" style="fill: none"/>
    <polygon points="871.21 692.71 871.21 692.71 871.21 692.71 871.21 692.71" style="fill: none"/>
    <path d="M927.49,701.54h0a29.49,29.49,0,0,1-16.69,5.75,29.79,29.79,0,0,1-14.08-3.07,1.51,1.51,0,0,0-.22-.11c-.8-.41-1.59-.85-2.36-1.33v0c-.16-.12-.32-.24-.49-.35a10.32,10.32,0,0,0-11.79.29h0a10.32,10.32,0,0,0-3.8,11.17h0a29.7,29.7,0,0,1-44.84,32.94h0a10.33,10.33,0,0,0-11.8.3h0a10.31,10.31,0,0,0-2.21,14.42,10.58,10.58,0,0,0,2.36,2.32h0l.1.07.59.37a50.3,50.3,0,0,0,77.3-37.48,50.23,50.23,0,0,0,40.18-8.68,10.32,10.32,0,1,0-12.22-16.63ZM832.9,762.72a9,9,0,1,1,1.93-12.63A9,9,0,0,1,832.9,762.72Z" transform="translate(-10.63 -10.03)" style="fill: url(#Sfumatura_senza_nome_48-11)"/>
  </g>
  <g>
    <polygon points="256.91 958.92 256.91 958.93 256.91 958.92 256.91 958.92" style="fill: none"/>
    <polygon points="317.37 914.52 317.37 914.52 317.37 914.52 317.37 914.52" style="fill: none"/>
    <path d="M373.65,923.35h0A29.7,29.7,0,0,1,342.87,926l-.21-.11c-.81-.4-1.59-.84-2.36-1.32h0l-.49-.34a10.31,10.31,0,0,0-11.8.29h0a10.33,10.33,0,0,0-3.81,11.17h0a29.7,29.7,0,0,1-44.85,32.94h0a10.33,10.33,0,0,0-11.8.3h0a10.3,10.3,0,0,0-3.8,11.17,10,10,0,0,0,1.6,3.25,9.94,9.94,0,0,0,2.36,2.31h0l.1.06.59.38a50.3,50.3,0,0,0,77.31-37.48A50.31,50.31,0,0,0,385.86,940a10.31,10.31,0,1,0-12.21-16.62Zm-94.6,61.17A9,9,0,1,1,281,971.9,9,9,0,0,1,279.05,984.52Z" transform="translate(-10.63 -10.03)" style="fill: url(#Sfumatura_senza_nome_48-12)"/>
  </g>
  <g>
    <polygon points="177.38 162.21 177.38 162.21 177.38 162.21 177.38 162.21" style="fill: none"/>
    <polygon points="347.45 126.4 347.44 126.4 347.45 126.4 347.45 126.4" style="fill: none"/>
    <path d="M455.55,177.6h0a68.82,68.82,0,0,1-67.49-23.82l-.35-.43c-1.31-1.63-2.55-3.31-3.71-5.06l0,0c-.22-.41-.45-.81-.7-1.2a23.91,23.91,0,0,0-25.17-10.68h0a23.91,23.91,0,0,0-18.73,19.92h0a68.81,68.81,0,0,1-126.15,26.56h0A23.91,23.91,0,0,0,188,172.24h0A23.9,23.9,0,0,0,172.3,207.7h0l.15.24c.28.46.58.91.87,1.36a116.55,116.55,0,0,0,199-5.07,116.52,116.52,0,0,0,93.09,20.15,23.9,23.9,0,0,0-9.85-46.78ZM197.38,216.11a20.93,20.93,0,1,1,16.17-24.8A20.93,20.93,0,0,1,197.38,216.11Z" transform="translate(-10.63 -10.03)" style="fill: url(#Sfumatura_senza_nome_48-13)"/>
  </g>
  <g>
    <polygon points="822.42 943.45 822.42 943.45 822.42 943.45 822.42 943.45" style="fill: none"/>
    <polygon points="992.49 907.64 992.49 907.64 992.49 907.64 992.49 907.64" style="fill: none"/>
    <path d="M1100.59,958.84h0a68.82,68.82,0,0,1-67.5-23.82l-.35-.43c-1.3-1.63-2.55-3.31-3.71-5.06l0,0c-.23-.41-.46-.81-.71-1.2a23.9,23.9,0,0,0-25.17-10.68h0a23.93,23.93,0,0,0-18.73,19.92h0a68.81,68.81,0,0,1-126.15,26.57h0a23.92,23.92,0,0,0-25.18-10.68h0a23.87,23.87,0,0,0-18.46,28.32,23.62,23.62,0,0,0,2.76,7.14h0l.15.24c.28.46.58.91.87,1.36a116.55,116.55,0,0,0,199-5.07,117.29,117.29,0,0,0,24,13.6,116,116,0,0,0,69.09,6.55,23.9,23.9,0,1,0-9.85-46.78ZM842.43,997.35a20.93,20.93,0,1,1,16.16-24.8A20.94,20.94,0,0,1,842.43,997.35Z" transform="translate(-10.63 -10.03)" style="fill: url(#Sfumatura_senza_nome_48-14)"/>
  </g>
  <g>
    <polygon points="564.59 527.73 564.59 527.73 564.59 527.73 564.59 527.73" style="fill: none"/>
    <polygon points="734.66 491.93 734.66 491.93 734.66 491.93 734.66 491.93" style="fill: none"/>
    <path d="M842.76,543.12h0a68.82,68.82,0,0,1-67.5-23.82l-.35-.43c-1.3-1.63-2.55-3.31-3.71-5.06l0,0c-.23-.41-.46-.81-.71-1.2A23.91,23.91,0,0,0,745.29,502h0a23.9,23.9,0,0,0-18.73,19.92h0A68.81,68.81,0,0,1,600.4,548.44h0a23.92,23.92,0,0,0-25.18-10.68h0a23.87,23.87,0,0,0-18.46,28.32,23.62,23.62,0,0,0,2.76,7.14h0l.15.24.87,1.36a116.54,116.54,0,0,0,199-5.06,117.72,117.72,0,0,0,24,13.59,116,116,0,0,0,69.09,6.55,23.9,23.9,0,1,0-9.85-46.78ZM584.6,581.63a20.93,20.93,0,1,1,16.17-24.79A20.94,20.94,0,0,1,584.6,581.63Z" transform="translate(-10.63 -10.03)" style="fill: url(#Sfumatura_senza_nome_48-15)"/>
  </g>
  <g>
    <polygon points="980.1 137.59 980.09 137.59 980.1 137.59 980.1 137.59" style="fill: none"/>
    <polygon points="1150.16 101.79 1150.16 101.79 1150.17 101.79 1150.16 101.79" style="fill: none"/>
    <path d="M1258.27,153h0a68.82,68.82,0,0,1-67.49-23.82l-.35-.43c-1.31-1.63-2.55-3.31-3.71-5.06l0,0c-.22-.41-.45-.81-.7-1.2a23.92,23.92,0,0,0-25.17-10.67h0a23.9,23.9,0,0,0-18.73,19.92h0a68.81,68.81,0,0,1-126.15,26.56h0a23.91,23.91,0,0,0-25.17-10.68h0A23.9,23.9,0,0,0,975,183.08h0c0,.09.1.16.16.25.28.45.58.9.87,1.35a116.54,116.54,0,0,0,199-5.06,117.19,117.19,0,0,0,24,13.59,116,116,0,0,0,69.09,6.55,23.9,23.9,0,0,0-9.85-46.78ZM1000.1,191.49a20.93,20.93,0,1,1,16.17-24.79A20.93,20.93,0,0,1,1000.1,191.49Z" transform="translate(-10.63 -10.03)" style="fill: url(#Sfumatura_senza_nome_48-16)"/>
  </g>
  <g>
    <polygon points="1484.6 510.48 1484.6 510.48 1484.61 510.48 1484.6 510.48" style="fill: none"/>
    <polygon points="1654.67 474.68 1654.67 474.68 1654.67 474.67 1654.67 474.68" style="fill: none"/>
    <path d="M1762.77,525.87h0a68.82,68.82,0,0,1-67.49-23.82l-.35-.43c-1.31-1.63-2.55-3.31-3.71-5.06l0,0c-.22-.41-.46-.81-.7-1.2a23.91,23.91,0,0,0-25.17-10.67h0a23.92,23.92,0,0,0-18.73,19.92h0a68.81,68.81,0,0,1-126.15,26.56h0a23.91,23.91,0,0,0-25.17-10.68h0a23.91,23.91,0,0,0-18.46,28.32,23.62,23.62,0,0,0,2.76,7.14h0l.15.24c.29.46.58.91.88,1.36a116.54,116.54,0,0,0,199-5.06,117.38,117.38,0,0,0,24,13.59,116,116,0,0,0,69.09,6.55,23.9,23.9,0,1,0-9.85-46.78Zm-258.16,38.51a20.93,20.93,0,1,1,16.17-24.8A20.93,20.93,0,0,1,1504.61,564.38Z" transform="translate(-10.63 -10.03)" style="fill: url(#Sfumatura_senza_nome_48-17)"/>
  </g>
  <g>
    <polygon points="97.46 250.03 97.46 250.03 97.47 250.03 97.46 250.03" style="fill: none"/>
    <polygon points="342.07 339.85 342.07 339.85 342.08 339.85 342.07 339.85" style="fill: none"/>
    <path d="M443.81,479.75h0a103.22,103.22,0,0,1-66.82-84c0-.27-.06-.55-.1-.83-.36-3.1-.61-6.23-.69-9.38h-.06c0-.7.06-1.39.06-2.08a35.85,35.85,0,0,0-23.49-33.6h0a35.86,35.86,0,0,0-39.65,10.41h0A103.17,103.17,0,0,1,131.6,293.66h0a35.84,35.84,0,0,0-23.49-33.59h0a35.84,35.84,0,0,0-48.17,32.56h0V293c0,.81,0,1.61,0,2.42,1,70.3,44.72,136.1,114.56,161.75a174.49,174.49,0,0,0,142.34-9.84,176,176,0,0,0,19.68,36.37A173.89,173.89,0,0,0,419.11,547a35.84,35.84,0,1,0,24.7-67.28ZM85.1,323.26a31.38,31.38,0,1,1,40.28-18.64A31.39,31.39,0,0,1,85.1,323.26Z" transform="translate(-10.63 -10.03)" style="fill: url(#Sfumatura_senza_nome_48-18)"/>
  </g>
  <g>
    <polygon points="1405.93 63.04 1405.93 63.04 1405.94 63.04 1405.93 63.04" style="fill: none"/>
    <polygon points="1650.55 152.86 1650.54 152.86 1650.55 152.86 1650.55 152.86" style="fill: none"/>
    <path d="M1752.29,292.76h0a103.18,103.18,0,0,1-66.82-84l-.09-.82c-.37-3.11-.61-6.24-.69-9.39h-.07c0-.69.06-1.39.06-2.08a35.84,35.84,0,0,0-23.49-33.59h0a35.85,35.85,0,0,0-39.65,10.41h0a103.17,103.17,0,0,1-181.45-66.63h0a35.85,35.85,0,0,0-23.49-33.6h0a35.84,35.84,0,0,0-48.18,32.56h0v.42c0,.81,0,1.62,0,2.43,1,70.3,44.72,136.1,114.56,161.74a174.41,174.41,0,0,0,142.34-9.84A176.23,176.23,0,0,0,1645,296.75a173.91,173.91,0,0,0,82.59,63.3,35.84,35.84,0,0,0,24.71-67.29ZM1393.58,136.27a31.38,31.38,0,1,1,40.27-18.64A31.37,31.37,0,0,1,1393.58,136.27Z" transform="translate(-10.63 -10.03)" style="fill: url(#Sfumatura_senza_nome_48-19)"/>
  </g>
  <g>
    <polygon points="896.6 286.35 896.6 286.35 896.6 286.35 896.6 286.35" style="fill: none"/>
    <polygon points="1141.21 376.17 1141.21 376.17 1141.22 376.18 1141.21 376.17" style="fill: none"/>
    <path d="M1243,516.07h0a103.19,103.19,0,0,1-66.82-84c0-.28-.07-.56-.1-.83-.36-3.11-.61-6.24-.69-9.39h-.06c0-.69.06-1.39.06-2.08a35.84,35.84,0,0,0-23.49-33.59h0a35.88,35.88,0,0,0-39.65,10.41h0A103.17,103.17,0,0,1,930.74,330h0a35.85,35.85,0,0,0-23.49-33.6h0a35.84,35.84,0,0,0-48.17,32.56h0v.43c0,.8,0,1.61,0,2.42,1,70.3,44.72,136.1,114.56,161.74A174.41,174.41,0,0,0,1116,483.69a175.75,175.75,0,0,0,19.68,36.37,173.91,173.91,0,0,0,82.59,63.3,35.84,35.84,0,0,0,24.7-67.29ZM884.24,359.58a31.38,31.38,0,1,1,40.28-18.64A31.38,31.38,0,0,1,884.24,359.58Z" transform="translate(-10.63 -10.03)" style="fill: url(#Sfumatura_senza_nome_48-20)"/>
  </g>
  <g>
    <polygon points="17.96 475.21 17.96 475.21 17.96 475.21 17.96 475.21" style="fill: none"/>
    <polygon points="60.34 476.72 60.34 476.72 60.34 476.72 60.34 476.72" style="fill: none"/>
    <path d="M91.64,502.23h0a16.83,16.83,0,0,1-14.59-9.61.61.61,0,0,1,0-.12c-.22-.46-.41-.93-.59-1.42h0l-.09-.33a5.85,5.85,0,0,0-5.34-4h0a5.82,5.82,0,0,0-5.6,3.62h0a16.79,16.79,0,0,1-31.44-1.12h0a5.82,5.82,0,0,0-5.33-4h0A5.84,5.84,0,0,0,23,488.86a5.77,5.77,0,0,0-.43,2,5.91,5.91,0,0,0,.23,1.85h0l0,.07c0,.13.09.25.13.37a28.44,28.44,0,0,0,47.42,10.5,28.52,28.52,0,0,0,4.88,4.62,28.21,28.21,0,0,0,16,5.61,5.83,5.83,0,1,0,.42-11.65Zm-63.4-6.05a5.11,5.11,0,1,1,5.28-4.92A5.11,5.11,0,0,1,28.24,496.18Z" transform="translate(-10.63 -10.03)" style="fill: url(#Sfumatura_senza_nome_48-21)"/>
  </g>
  <g>
    <polygon points="405.08 269.45 405.08 269.45 405.08 269.45 405.08 269.45" style="fill: none"/>
    <polygon points="447.46 270.96 447.46 270.96 447.46 270.96 447.46 270.96" style="fill: none"/>
    <path d="M478.76,296.47h0a16.83,16.83,0,0,1-14.59-9.61l-.06-.12c-.21-.46-.41-.94-.58-1.42h0l-.09-.32a5.85,5.85,0,0,0-5.34-4h0a5.82,5.82,0,0,0-5.6,3.62h0a16.8,16.8,0,0,1-31.44-1.12h0a5.82,5.82,0,0,0-5.33-4h0a5.84,5.84,0,0,0-5.61,3.62,5.77,5.77,0,0,0-.43,2,6,6,0,0,0,.23,1.85h0l0,.07.13.37a28.43,28.43,0,0,0,47.42,10.49,28.4,28.4,0,0,0,20.86,10.24,5.83,5.83,0,1,0,.42-11.65Zm-63.4-6.05a5.11,5.11,0,1,1,5.28-4.92A5.11,5.11,0,0,1,415.36,290.42Z" transform="translate(-10.63 -10.03)" style="fill: url(#Sfumatura_senza_nome_48-22)"/>
  </g>
  <g>
    <polygon points="791.11 192.21 791.11 192.21 791.11 192.21 791.11 192.21" style="fill: none"/>
    <polygon points="833.49 193.72 833.49 193.72 833.49 193.72 833.49 193.72" style="fill: none"/>
    <path d="M864.78,219.22h0a16.76,16.76,0,0,1-14.58-9.6l-.06-.13c-.21-.46-.41-.93-.58-1.41h0a3,3,0,0,0-.1-.32,5.82,5.82,0,0,0-5.33-4h0a5.84,5.84,0,0,0-5.61,3.62h0a16.79,16.79,0,0,1-31.43-1.13h0a5.85,5.85,0,0,0-5.34-4h0a5.85,5.85,0,0,0-6,5.62,6,6,0,0,0,.24,1.85h0l0,.07.12.37a28.44,28.44,0,0,0,47.43,10.49,28.4,28.4,0,0,0,20.86,10.24,5.83,5.83,0,0,0,.41-11.66Zm-63.4-6.05a5.1,5.1,0,1,1,5.29-4.92A5.11,5.11,0,0,1,801.38,213.17Z" transform="translate(-10.63 -10.03)" style="fill: url(#Sfumatura_senza_nome_48-23)"/>
  </g>
  <g>
    <polygon points="1374.63 665.87 1374.63 665.87 1374.63 665.87 1374.63 665.87" style="fill: none"/>
    <polygon points="1417 667.38 1417 667.38 1417 667.38 1417 667.38" style="fill: none"/>
    <path d="M1448.3,692.89h0a16.83,16.83,0,0,1-14.59-9.61l0-.12c-.22-.47-.41-.94-.58-1.42h0c0-.11-.07-.21-.1-.32a5.82,5.82,0,0,0-5.33-4h0A5.84,5.84,0,0,0,1422,681h0a16.8,16.8,0,0,1-31.44-1.12h0a5.82,5.82,0,0,0-5.33-4h0a5.84,5.84,0,0,0-5.61,3.62,6,6,0,0,0-.43,2,5.67,5.67,0,0,0,.24,1.85h0l0,.07c0,.12.09.25.13.37A28.43,28.43,0,0,0,1427,694.3a28.48,28.48,0,0,0,20.86,10.24,5.83,5.83,0,1,0,.42-11.65Zm-63.4-6a5.11,5.11,0,1,1,5.29-4.92A5.11,5.11,0,0,1,1384.9,686.84Z" transform="translate(-10.63 -10.03)" style="fill: url(#Sfumatura_senza_nome_48-24)"/>
  </g>
  <g>
    <polygon points="583.33 680.19 583.33 680.19 583.33 680.19 583.33 680.19" style="fill: none"/>
    <polygon points="625.71 681.71 625.71 681.71 625.71 681.71 625.71 681.71" style="fill: none"/>
    <path d="M657,707.21h0a16.76,16.76,0,0,1-14.58-9.6l-.06-.13c-.21-.46-.41-.93-.58-1.41h0l-.09-.33a5.85,5.85,0,0,0-5.34-4h0a5.83,5.83,0,0,0-5.6,3.61h0a16.78,16.78,0,0,1-31.43-1.12h0a5.85,5.85,0,0,0-5.34-4h0a5.85,5.85,0,0,0-5.6,3.62,5.6,5.6,0,0,0-.43,2,5.7,5.7,0,0,0,.23,1.85h0l0,.06c0,.13.09.25.13.38a28.43,28.43,0,0,0,47.42,10.49,28.4,28.4,0,0,0,20.86,10.24,5.83,5.83,0,1,0,.42-11.66Zm-63.4-6.05a5.1,5.1,0,1,1,5.28-4.92A5.1,5.1,0,0,1,593.61,701.16Z" transform="translate(-10.63 -10.03)" style="fill: url(#Sfumatura_senza_nome_48-25)"/>
  </g>
  <g>
    <polygon points="66.15 941.87 66.15 941.87 66.15 941.87 66.15 941.87" style="fill: none"/>
    <polygon points="108.53 943.38 108.52 943.38 108.53 943.38 108.53 943.38" style="fill: none"/>
    <path d="M139.82,968.89h0a16.8,16.8,0,0,1-14.58-9.61l-.06-.12a14.57,14.57,0,0,1-.58-1.42h0c0-.1-.06-.21-.1-.32a5.84,5.84,0,0,0-5.33-4h0a5.84,5.84,0,0,0-5.61,3.62h0a16.79,16.79,0,0,1-31.43-1.12h0a5.82,5.82,0,0,0-5.33-4h0a5.84,5.84,0,0,0-5.61,3.62,6,6,0,0,0-.43,2,5.67,5.67,0,0,0,.24,1.85h0l0,.07.12.37a28.43,28.43,0,0,0,47.42,10.49,28.48,28.48,0,0,0,20.86,10.24,5.83,5.83,0,1,0,.42-11.65Zm-63.4-6a5.11,5.11,0,1,1,5.29-4.92A5.11,5.11,0,0,1,76.42,962.84Z" transform="translate(-10.63 -10.03)" style="fill: url(#Sfumatura_senza_nome_48-26)"/>
  </g>
  <g>
    <polygon points="123.65 658.66 123.65 658.66 123.66 658.66 123.65 658.66" style="fill: none"/>
    <polygon points="384.07 667.96 384.07 667.96 384.07 667.96 384.07 667.96" style="fill: none"/>
    <path d="M521.68,773.08h0a103.22,103.22,0,0,1-89.62-59c-.11-.25-.23-.51-.35-.76-1.31-2.84-2.52-5.74-3.57-8.7l-.06,0c-.18-.68-.38-1.34-.59-2A35.86,35.86,0,0,0,394.7,678h0a35.86,35.86,0,0,0-34.45,22.22h0a103.17,103.17,0,0,1-193.17-6.9h0a35.84,35.84,0,0,0-32.77-24.62h0a35.82,35.82,0,0,0-35.65,45.93h0c0,.13.09.27.14.4.25.77.52,1.53.78,2.3,22.85,66.49,84.83,115.44,159.18,118.09a174.4,174.4,0,0,0,132.22-53.62,176.09,176.09,0,0,0,30,28.45,173.89,173.89,0,0,0,98.18,34.47,35.84,35.84,0,1,0,2.56-71.63ZM132.09,735.91a31.38,31.38,0,1,1,32.48-30.24A31.38,31.38,0,0,1,132.09,735.91Z" transform="translate(-10.63 -10.03)" style="fill: url(#Sfumatura_senza_nome_48-27)"/>
  </g>
  <g>
    <polygon points="1430.88 819.12 1430.88 819.12 1430.88 819.12 1430.88 819.12" style="fill: none"/>
    <polygon points="1691.3 828.41 1691.29 828.41 1691.3 828.41 1691.3 828.41" style="fill: none"/>
    <path d="M1828.91,933.53h0a103.14,103.14,0,0,1-89.62-59l-.35-.75c-1.31-2.84-2.52-5.74-3.58-8.71l-.06,0c-.17-.67-.37-1.34-.59-2a35.85,35.85,0,0,0-32.77-24.63h0a35.85,35.85,0,0,0-34.44,22.23h0a103.17,103.17,0,0,1-193.17-6.9h0a35.86,35.86,0,0,0-32.78-24.62h0a35.85,35.85,0,0,0-35.66,45.93h0c0,.13.09.26.13.4.25.77.52,1.53.78,2.29,22.85,66.49,84.83,115.45,159.18,118.1a174.49,174.49,0,0,0,132.23-53.62,176.06,176.06,0,0,0,30,28.44,173.92,173.92,0,0,0,98.18,34.48,35.84,35.84,0,0,0,2.56-71.64Zm-389.59-37.17a31.38,31.38,0,1,1,32.48-30.24A31.39,31.39,0,0,1,1439.32,896.36Z" transform="translate(-10.63 -10.03)" style="fill: url(#Sfumatura_senza_nome_48-28)"/>
  </g>
  <circle cx="642.49" cy="288.23" r="70.55" style="fill: #fbb040"/>
  <circle cx="1461.18" cy="393.51" r="70.55" style="fill: #fbb040"/>
  <circle cx="487.68" cy="970.52" r="46.88" style="fill: #fbb040"/>
  <circle cx="1134.72" cy="708.84" r="46.88" style="fill: #fbb040"/>
  <circle cx="1208.94" cy="48.34" r="46.88" style="fill: #fbb040"/>
  <circle cx="282.49" cy="65.39" r="46.88" style="fill: #fbb040"/>
  <circle cx="1801.65" cy="707.72" r="28.7" style="fill: #fbb040"/>
  <circle cx="1299.27" cy="1023.86" r="28.7" style="fill: #fbb040"/>
  <circle cx="60.87" cy="586.82" r="28.7" style="fill: #fbb040"/>
</svg>
