<?xml version="1.0" standalone="no"?>
<svg xmlns:xlink="http://www.w3.org/1999/xlink" id="wave" style="transform:rotate(0deg); transition: 0.3s" viewBox="0 0 1440 350" version="1.1" xmlns="http://www.w3.org/2000/svg"><defs><linearGradient id="sw-gradient-0" x1="0" x2="0" y1="1" y2="0"><stop stop-color="rgba(0, 0, 0, 1)" offset="0%"/><stop stop-color="rgba(228.105, 228.105, 228.105, 1)" offset="100%"/></linearGradient></defs><path style="transform:translate(0, 0px); opacity:1" fill="url(#sw-gradient-0)" d="M0,105L120,87.5C240,70,480,35,720,17.5C960,0,1200,0,1440,5.8C1680,12,1920,23,2160,70C2400,117,2640,198,2880,233.3C3120,268,3360,257,3600,233.3C3840,210,4080,175,4320,140C4560,105,4800,70,5040,75.8C5280,82,5520,128,5760,175C6000,222,6240,268,6480,268.3C6720,268,6960,222,7200,221.7C7440,222,7680,268,7920,291.7C8160,315,8400,315,8640,268.3C8880,222,9120,128,9360,87.5C9600,47,9840,58,10080,93.3C10320,128,10560,187,10800,210C11040,233,11280,222,11520,180.8C11760,140,12000,70,12240,40.8C12480,12,12720,23,12960,58.3C13200,93,13440,152,13680,192.5C13920,233,14160,257,14400,256.7C14640,257,14880,233,15120,215.8C15360,198,15600,187,15840,198.3C16080,210,16320,245,16560,233.3C16800,222,17040,163,17160,134.2L17280,105L17280,350L17160,350C17040,350,16800,350,16560,350C16320,350,16080,350,15840,350C15600,350,15360,350,15120,350C14880,350,14640,350,14400,350C14160,350,13920,350,13680,350C13440,350,13200,350,12960,350C12720,350,12480,350,12240,350C12000,350,11760,350,11520,350C11280,350,11040,350,10800,350C10560,350,10320,350,10080,350C9840,350,9600,350,9360,350C9120,350,8880,350,8640,350C8400,350,8160,350,7920,350C7680,350,7440,350,7200,350C6960,350,6720,350,6480,350C6240,350,6000,350,5760,350C5520,350,5280,350,5040,350C4800,350,4560,350,4320,350C4080,350,3840,350,3600,350C3360,350,3120,350,2880,350C2640,350,2400,350,2160,350C1920,350,1680,350,1440,350C1200,350,960,350,720,350C480,350,240,350,120,350L0,350Z"/><defs><linearGradient id="sw-gradient-1" x1="0" x2="0" y1="1" y2="0"><stop stop-color="rgba(0, 0, 0, 1)" offset="0%"/><stop stop-color="rgba(0, 0, 0, 1)" offset="100%"/></linearGradient></defs><path style="transform:translate(0, 50px); opacity:0.9" fill="url(#sw-gradient-1)" d="M0,0L120,40.8C240,82,480,163,720,175C960,187,1200,128,1440,87.5C1680,47,1920,23,2160,58.3C2400,93,2640,187,2880,239.2C3120,292,3360,303,3600,297.5C3840,292,4080,268,4320,215.8C4560,163,4800,82,5040,87.5C5280,93,5520,187,5760,233.3C6000,280,6240,280,6480,262.5C6720,245,6960,210,7200,204.2C7440,198,7680,222,7920,239.2C8160,257,8400,268,8640,239.2C8880,210,9120,140,9360,99.2C9600,58,9840,47,10080,58.3C10320,70,10560,105,10800,116.7C11040,128,11280,117,11520,110.8C11760,105,12000,105,12240,116.7C12480,128,12720,152,12960,140C13200,128,13440,82,13680,87.5C13920,93,14160,152,14400,157.5C14640,163,14880,117,15120,87.5C15360,58,15600,47,15840,75.8C16080,105,16320,175,16560,221.7C16800,268,17040,292,17160,303.3L17280,315L17280,350L17160,350C17040,350,16800,350,16560,350C16320,350,16080,350,15840,350C15600,350,15360,350,15120,350C14880,350,14640,350,14400,350C14160,350,13920,350,13680,350C13440,350,13200,350,12960,350C12720,350,12480,350,12240,350C12000,350,11760,350,11520,350C11280,350,11040,350,10800,350C10560,350,10320,350,10080,350C9840,350,9600,350,9360,350C9120,350,8880,350,8640,350C8400,350,8160,350,7920,350C7680,350,7440,350,7200,350C6960,350,6720,350,6480,350C6240,350,6000,350,5760,350C5520,350,5280,350,5040,350C4800,350,4560,350,4320,350C4080,350,3840,350,3600,350C3360,350,3120,350,2880,350C2640,350,2400,350,2160,350C1920,350,1680,350,1440,350C1200,350,960,350,720,350C480,350,240,350,120,350L0,350Z"/></svg>