<?xml version="1.0" standalone="no"?>
<svg xmlns:xlink="http://www.w3.org/1999/xlink" id="wave" style="transform:rotate(0deg); transition: 0.3s" viewBox="0 0 1440 490" version="1.1" xmlns="http://www.w3.org/2000/svg"><defs><linearGradient id="sw-gradient-0" x1="0" x2="0" y1="1" y2="0"><stop stop-color="rgba(234.936, 234.936, 234.936, 1)" offset="0%"/><stop stop-color="rgba(214.445, 214.445, 214.445, 1)" offset="100%"/></linearGradient></defs><path style="transform:translate(0, 0px); opacity:1" fill="url(#sw-gradient-0)" d="M0,196L120,163.3C240,131,480,65,720,73.5C960,82,1200,163,1440,171.5C1680,180,1920,114,2160,138.8C2400,163,2640,278,2880,326.7C3120,376,3360,359,3600,310.3C3840,261,4080,180,4320,196C4560,212,4800,327,5040,351.2C5280,376,5520,310,5760,261.3C6000,212,6240,180,6480,155.2C6720,131,6960,114,7200,122.5C7440,131,7680,163,7920,187.8C8160,212,8400,229,8640,236.8C8880,245,9120,245,9360,261.3C9600,278,9840,310,10080,334.8C10320,359,10560,376,10800,392C11040,408,11280,425,11520,392C11760,359,12000,278,12240,236.8C12480,196,12720,196,12960,236.8C13200,278,13440,359,13680,343C13920,327,14160,212,14400,179.7C14640,147,14880,196,15120,179.7C15360,163,15600,82,15840,65.3C16080,49,16320,98,16560,155.2C16800,212,17040,278,17160,310.3L17280,343L17280,490L17160,490C17040,490,16800,490,16560,490C16320,490,16080,490,15840,490C15600,490,15360,490,15120,490C14880,490,14640,490,14400,490C14160,490,13920,490,13680,490C13440,490,13200,490,12960,490C12720,490,12480,490,12240,490C12000,490,11760,490,11520,490C11280,490,11040,490,10800,490C10560,490,10320,490,10080,490C9840,490,9600,490,9360,490C9120,490,8880,490,8640,490C8400,490,8160,490,7920,490C7680,490,7440,490,7200,490C6960,490,6720,490,6480,490C6240,490,6000,490,5760,490C5520,490,5280,490,5040,490C4800,490,4560,490,4320,490C4080,490,3840,490,3600,490C3360,490,3120,490,2880,490C2640,490,2400,490,2160,490C1920,490,1680,490,1440,490C1200,490,960,490,720,490C480,490,240,490,120,490L0,490Z"/><defs><linearGradient id="sw-gradient-1" x1="0" x2="0" y1="1" y2="0"><stop stop-color="rgba(41, 41, 41, 1)" offset="0%"/><stop stop-color="rgba(41, 41, 41, 1)" offset="100%"/></linearGradient></defs><path style="transform:translate(0, 50px); opacity:0.9" fill="url(#sw-gradient-1)" d="M0,98L120,122.5C240,147,480,196,720,196C960,196,1200,147,1440,122.5C1680,98,1920,98,2160,155.2C2400,212,2640,327,2880,367.5C3120,408,3360,376,3600,302.2C3840,229,4080,114,4320,89.8C4560,65,4800,131,5040,179.7C5280,229,5520,261,5760,236.8C6000,212,6240,131,6480,114.3C6720,98,6960,147,7200,179.7C7440,212,7680,229,7920,236.8C8160,245,8400,245,8640,245C8880,245,9120,245,9360,253.2C9600,261,9840,278,10080,294C10320,310,10560,327,10800,343C11040,359,11280,376,11520,375.7C11760,376,12000,359,12240,359.3C12480,359,12720,376,12960,375.7C13200,376,13440,359,13680,318.5C13920,278,14160,212,14400,179.7C14640,147,14880,147,15120,155.2C15360,163,15600,180,15840,187.8C16080,196,16320,196,16560,220.5C16800,245,17040,294,17160,318.5L17280,343L17280,490L17160,490C17040,490,16800,490,16560,490C16320,490,16080,490,15840,490C15600,490,15360,490,15120,490C14880,490,14640,490,14400,490C14160,490,13920,490,13680,490C13440,490,13200,490,12960,490C12720,490,12480,490,12240,490C12000,490,11760,490,11520,490C11280,490,11040,490,10800,490C10560,490,10320,490,10080,490C9840,490,9600,490,9360,490C9120,490,8880,490,8640,490C8400,490,8160,490,7920,490C7680,490,7440,490,7200,490C6960,490,6720,490,6480,490C6240,490,6000,490,5760,490C5520,490,5280,490,5040,490C4800,490,4560,490,4320,490C4080,490,3840,490,3600,490C3360,490,3120,490,2880,490C2640,490,2400,490,2160,490C1920,490,1680,490,1440,490C1200,490,960,490,720,490C480,490,240,490,120,490L0,490Z"/></svg>