<svg xmlns="http://www.w3.org/2000/svg" viewBox="0 0 101.06 107.77">
  <g id="Layer_2" data-name="Layer 2">
    <g id="_ÎÓÈ_1" data-name="—ÎÓÈ_1">
      <g>
        <g>
          <path d="M80.88,24.6A12.21,12.21,0,1,0,68.67,12.39,12.21,12.21,0,0,0,80.88,24.6Zm0-20.22a8,8,0,1,1-8,8A8,8,0,0,1,80.88,4.38Z" style="fill: #333"/>
          <path d="M85.51,26H73.25L59.45,3.25a2.21,2.21,0,0,0-.5-.56C57.51,1.56,53.87-.93,51.2.37c-.78.37-2.08,1.39-2.08,4,0,7.54.4,9.18,2,11.71,1.15,1.84,13.63,23,15.7,26.51V57.72h0L67,100a6.27,6.27,0,0,0,.63,4.47,6.12,6.12,0,0,0,3.69,3l.16.06a7.18,7.18,0,0,0,4.9-.43,6.63,6.63,0,0,0,2.46-2,6.51,6.51,0,0,0,5.53,2.64,8,8,0,0,0,2.11-.29,6.32,6.32,0,0,0,4.4-7.45l.31-30.49a7.18,7.18,0,0,0,2.88.63A6.77,6.77,0,0,0,95.52,70a7.18,7.18,0,0,0,5.54-7.07V39.59C101.06,32.85,92,26,85.51,26Zm11.35,37A2.86,2.86,0,0,1,92,65.12a2.69,2.69,0,0,1-.74-1.27V42A2.1,2.1,0,1,0,87,42V57.72h0V64.3l-.37,36a2.33,2.33,0,0,0,.08.59,2.1,2.1,0,0,1-1.42,2.59,3.54,3.54,0,0,1-1,.13,2.44,2.44,0,0,1-2.12-.91L81.1,68.54a2.09,2.09,0,0,0-2.09-2h0a2.1,2.1,0,0,0-2.1,2l-1.27,33.79a2.1,2.1,0,0,1-1,1,3,3,0,0,1-1.9.23l-.17-.06a2.05,2.05,0,0,1-1.26-1,2.12,2.12,0,0,1-.18-1.6,1.89,1.89,0,0,0,.08-.58L71,57.71V42.12s0,0,0-.08V42a1.64,1.64,0,0,0,0-.38.06.06,0,0,0,0,0,1.42,1.42,0,0,0-.11-.35s0,0,0,0a1.47,1.47,0,0,0-.1-.22c-.6-1-14.78-25.07-16-27.11-.95-1.52-1.34-2.15-1.34-9.49V4.27a10.63,10.63,0,0,1,2.75,1.5L70.28,29.15s0,0,0,0a1.16,1.16,0,0,0,.16.21,1.13,1.13,0,0,0,.1.13l.17.15.14.11.18.11.17.09a1.27,1.27,0,0,0,.18.06l.21.07.16,0a2.06,2.06,0,0,0,.26,0H85.51c4.31,0,11.35,5.28,11.35,9.43Z" style="fill: #333"/>
        </g>
        <g>
          <path d="M20.18,24.6A12.21,12.21,0,1,0,8,12.39,12.21,12.21,0,0,0,20.18,24.6Zm0-20.22a8,8,0,1,1-8,8A8,8,0,0,1,20.18,4.38Z" style="fill: #333"/>
          <path d="M51.93,4.32c0-2.56-1.3-3.58-2.08-3.95-2.66-1.3-6.3,1.19-7.75,2.32a2.21,2.21,0,0,0-.5.56L27.81,26H15.54C9,26,0,32.85,0,39.59V62.94A7.18,7.18,0,0,0,5.54,70,6.69,6.69,0,0,0,7,70.17a7.14,7.14,0,0,0,2.88-.63L10.21,100a6.3,6.3,0,0,0,4.42,7.45,7.7,7.7,0,0,0,2.09.29,6.51,6.51,0,0,0,5.53-2.64,6.51,6.51,0,0,0,2.45,2,7.2,7.2,0,0,0,5,.4A6.28,6.28,0,0,0,34.09,100l.17-42.29h0V42.54C36.33,39,48.81,17.87,50,16,51.63,13.36,51.93,10,51.93,4.32ZM46.4,13.81c-1.28,2-15.45,26.08-16,27.11a1,1,0,0,0-.11.23l0,0a2.47,2.47,0,0,0-.11.36v0a2.58,2.58,0,0,0,0,.39V57.71l-.17,42.56a2.25,2.25,0,0,0,.08.58,2.08,2.08,0,0,1-.18,1.6,2.12,2.12,0,0,1-1.34,1,2.93,2.93,0,0,1-2-.2,2,2,0,0,1-1-1L24.15,68.53a2.1,2.1,0,0,0-2.1-2h0a2.1,2.1,0,0,0-2.09,2l-1.11,34.12a2.44,2.44,0,0,1-2.12.91,3.64,3.64,0,0,1-.95-.12,2.12,2.12,0,0,1-1.45-2.6,1.68,1.68,0,0,0,.08-.59L14,64.32v-6.6h0V42a2.1,2.1,0,0,0-4.2,0V63.85a2.71,2.71,0,0,1-.75,1.27,3,3,0,0,1-2.68.79,3,3,0,0,1-2.21-3V39.59c0-4.15,7-9.42,11.34-9.43H29a2.48,2.48,0,0,0,.27,0l.14,0,.24-.07.15-.06.21-.11.14-.08.17-.14.15-.13.11-.13c.05-.07.1-.13.15-.21l0,0L45,5.77a11,11,0,0,1,2.76-1.5v.05C47.74,9.81,47.4,12.2,46.4,13.81Z" style="fill: #333"/>
        </g>
      </g>
    </g>
  </g>
</svg>
